<?xml version="1.0" encoding="UTF-8" standalone="no"?>
<svg xmlns="http://www.w3.org/2000/svg" stroke-linecap="square" version="1.1" stroke-miterlimit="10" xmlns:xlink="http://www.w3.org/1999/xlink" viewBox="0.0 0.0 778.0 364.0" fill="none">
 <clipPath id="p.0">
  <path d="m0 0h778v364h-778v-364z"/>
 </clipPath>
 <g clip-path="url(#p.0)">
  <path fill-opacity="0" d="m0 0h778.98v364.66h-778.98z" fill="#000"/>
  <path d="m159.24 16.013h28.315v224.22h-28.315z" fill="#fff2cc"/>
  <path stroke-linejoin="round" d="m159.24 16.013h28.315v224.22h-28.315z" stroke="#000" stroke-linecap="butt"/>
  <path d="m170.65 36.923v-9.3125h1.2344v8.2188h4.5781v1.0938h-5.8125z" fill="#000"/>
  <path d="m168.84 48.392q0-2.3125 1.2344-3.625 1.25-1.3125 3.2188-1.3125 1.2969 0 2.3281 0.625 1.0312 0.60938 1.5781 1.7188 0.54688 1.0938 0.54688 2.4844 0 1.4219-0.57812 2.5469-0.5625 1.1094-1.6094 1.6875-1.0469 0.5625-2.2656 0.5625-1.3125 0-2.3594-0.625-1.0312-0.64062-1.5625-1.7344-0.53125-1.1094-0.53125-2.3281zm1.2656 0.015625q0 1.6875 0.90625 2.6562 0.90625 0.96875 2.2812 0.96875 1.3906 0 2.2812-0.96875 0.90625-0.98438 0.90625-2.7812 0-1.1406-0.39062-1.9844-0.39062-0.85938-1.125-1.3125-0.73438-0.46875-1.6562-0.46875-1.3125 0-2.2656 0.90625-0.9375 0.89062-0.9375 2.9844z" fill="#000"/>
  <path d="m168.94 68.923l3.5781-9.3125h1.3125l3.8125 9.3125h-1.4062l-1.0781-2.8125h-3.8906l-1.0312 2.8125h-1.2969zm2.6875-3.8281h3.1562l-0.98438-2.5781q-0.4375-1.1719-0.65625-1.9219-0.17188 0.89062-0.5 1.7812l-1.0156 2.7188z" fill="#000"/>
  <path d="m169.59 84.923v-9.3125h3.2031q1.0938 0 1.6562 0.14062 0.8125 0.1875 1.375 0.67188 0.73438 0.60938 1.0938 1.5781 0.375 0.96875 0.375 2.2188 0 1.0625-0.25 1.8906-0.25 0.8125-0.64062 1.3438-0.39062 0.53125-0.85938 0.84375-0.45312 0.3125-1.1094 0.46875-0.64062 0.15625-1.4844 0.15625h-3.3594zm1.2344-1.0938h1.9844q0.92188 0 1.4375-0.17188 0.53125-0.17188 0.84375-0.48438 0.4375-0.4375 0.67188-1.1719 0.25-0.75 0.25-1.7969 0-1.4688-0.48438-2.25-0.46875-0.78125-1.1562-1.0469-0.5-0.1875-1.5938-0.1875h-1.9531v7.1094z" fill="#000"/>
  <path d="m169.91 116.92v-9.3125h3.4844q1.0781 0 1.7188 0.29688 0.64062 0.28125 1 0.875 0.375 0.57812 0.375 1.2188 0 0.59375-0.32812 1.125-0.32812 0.51562-0.96875 0.84375 0.84375 0.25 1.2969 0.84375 0.45312 0.59375 0.45312 1.4062 0 0.65625-0.28125 1.2188-0.28125 0.5625-0.6875 0.875-0.40625 0.29688-1.0156 0.45312-0.60938 0.15625-1.5 0.15625h-3.5469zm1.2344-5.3906h2.0156q0.8125 0 1.1719-0.10938 0.46875-0.14062 0.70312-0.46875 0.23438-0.32812 0.23438-0.8125 0-0.46875-0.21875-0.8125-0.21875-0.35938-0.64062-0.48438-0.40625-0.125-1.4062-0.125h-1.8594v2.8125zm0 4.2969h2.3125q0.59375 0 0.84375-0.046875 0.42188-0.078125 0.70312-0.25 0.28125-0.1875 0.46875-0.51562 0.1875-0.34375 0.1875-0.79688 0-0.51562-0.26562-0.89062-0.26562-0.39062-0.75-0.54688-0.46875-0.15625-1.3594-0.15625h-2.1406v3.2031z" fill="#000"/>
  <path d="m168.94 132.92l3.5781-9.3125h1.3125l3.8125 9.3125h-1.4062l-1.0781-2.8125h-3.8906l-1.0312 2.8125h-1.2969zm2.6875-3.8281h3.1562l-0.98438-2.5781q-0.4375-1.1719-0.65625-1.9219-0.17188 0.89062-0.5 1.7812l-1.0156 2.7188z" fill="#000"/>
  <path d="m170.65 148.92v-9.3125h1.2344v8.2188h4.5781v1.0938h-5.8125z" fill="#000"/>
  <path d="m168.94 164.92l3.5781-9.3125h1.3125l3.8125 9.3125h-1.4062l-1.0781-2.8125h-3.8906l-1.0312 2.8125h-1.2969zm2.6875-3.8281h3.1562l-0.98438-2.5781q-0.4375-1.1719-0.65625-1.9219-0.17188 0.89062-0.5 1.7812l-1.0156 2.7188z" fill="#000"/>
  <path d="m169.57 180.92v-9.3125h1.2656l4.8906 7.3125v-7.3125h1.1875v9.3125h-1.2656l-4.8906-7.3125v7.3125h-1.1875z" fill="#000"/>
  <path d="m176.23 193.66l1.2344 0.3125q-0.39062 1.5156-1.4062 2.3125-1 0.79688-2.4531 0.79688-1.5 0-2.4531-0.60938-0.9375-0.60938-1.4375-1.7656-0.48438-1.1719-0.48438-2.5 0-1.4531 0.5625-2.5312 0.5625-1.0938 1.5781-1.6562 1.0312-0.5625 2.2656-0.5625 1.3906 0 2.3438 0.71875 0.95312 0.70312 1.3281 2l-1.2188 0.28125q-0.32812-1.0156-0.9375-1.4688-0.60938-0.46875-1.5469-0.46875-1.0781 0-1.7969 0.51562-0.71875 0.51562-1.0156 1.375-0.28125 0.85938-0.28125 1.7812 0 1.1875 0.34375 2.0781 0.34375 0.89062 1.0625 1.3281 0.73438 0.4375 1.5938 0.4375 1.0312 0 1.75-0.59375 0.71875-0.60938 0.96875-1.7812z" fill="#000"/>
  <path d="m169.99 212.92v-9.3125h6.7188v1.1094h-5.4844v2.8438h5.1406v1.0938h-5.1406v3.1719h5.7031v1.0938h-6.9375z" fill="#000"/>
  <path d="m169.6 228.92v-9.3125h4.125q1.25 0 1.8906 0.26562 0.65625 0.25 1.0469 0.89062 0.39062 0.625 0.39062 1.3906 0 0.98438-0.65625 1.6719-0.64062 0.67188-1.9688 0.85938 0.48438 0.23438 0.73438 0.46875 0.54688 0.48438 1.0312 1.2344l1.6094 2.5312h-1.5469l-1.2344-1.9375q-0.53125-0.84375-0.89062-1.2812-0.34375-0.4375-0.625-0.60938-0.26562-0.1875-0.54688-0.26562-0.21875-0.03125-0.6875-0.03125h-1.4375v4.125h-1.2344zm1.2344-5.2031h2.6562q0.84375 0 1.3125-0.17188 0.48438-0.17188 0.71875-0.54688 0.25-0.39062 0.25-0.84375 0-0.65625-0.48438-1.0781-0.46875-0.4375-1.5-0.4375h-2.9531v3.0781z" fill="#000"/>
  <path d="m394.29 14.177h28.315v327.09h-28.315z" fill="#fff2cc"/>
  <path stroke-linejoin="round" d="m394.29 14.177h28.315v327.09h-28.315z" stroke="#000" stroke-linecap="butt"/>
  <path d="m405.69 86.52v-9.3125h1.2344v8.2188h4.5781v1.0938h-5.8125z" fill="#000"/>
  <path d="m403.89 97.989q0-2.3125 1.2344-3.625 1.25-1.3125 3.2188-1.3125 1.2969 0 2.3281 0.625 1.0312 0.60938 1.5781 1.7188 0.54688 1.0938 0.54688 2.4844 0 1.4219-0.57812 2.5469-0.5625 1.1094-1.6094 1.6875-1.0469 0.5625-2.2656 0.5625-1.3125 0-2.3594-0.625-1.0312-0.64062-1.5625-1.7344-0.53125-1.1094-0.53125-2.3281zm1.2656 0.015625q0 1.6875 0.90625 2.6562 0.90625 0.96875 2.2812 0.96875 1.3906 0 2.2812-0.96875 0.90625-0.98438 0.90625-2.7812 0-1.1406-0.39062-1.9844-0.39062-0.85938-1.125-1.3125-0.73438-0.46875-1.6562-0.46875-1.3125 0-2.2656 0.90625-0.9375 0.89062-0.9375 2.9844z" fill="#000"/>
  <path d="m403.98 118.52l3.5781-9.3125h1.3125l3.8125 9.3125h-1.4062l-1.0781-2.8125h-3.8906l-1.0312 2.8125h-1.2969zm2.6875-3.8281h3.1562l-0.98438-2.5781q-0.4375-1.1719-0.65625-1.9219-0.17188 0.89062-0.5 1.7812l-1.0156 2.7188z" fill="#000"/>
  <path d="m404.63 134.52v-9.3125h3.2031q1.0938 0 1.6562 0.14062 0.8125 0.1875 1.375 0.67188 0.73438 0.60938 1.0938 1.5781 0.375 0.96875 0.375 2.2188 0 1.0625-0.25 1.8906-0.25 0.8125-0.64062 1.3438-0.39062 0.53125-0.85938 0.84375-0.45312 0.3125-1.1094 0.46875-0.64062 0.15625-1.4844 0.15625h-3.3594zm1.2344-1.0938h1.9844q0.92188 0 1.4375-0.17188 0.53125-0.17188 0.84375-0.48438 0.4375-0.4375 0.67188-1.1719 0.25-0.75 0.25-1.7969 0-1.4688-0.48438-2.25-0.46875-0.78125-1.1562-1.0469-0.5-0.1875-1.5938-0.1875h-1.9531v7.1094z" fill="#000"/>
  <path d="m404.95 166.52v-9.3125h3.4844q1.0781 0 1.7188 0.29688 0.64062 0.28125 1 0.875 0.375 0.57812 0.375 1.2188 0 0.59375-0.32812 1.125-0.32812 0.51562-0.96875 0.84375 0.84375 0.25 1.2969 0.84375 0.45312 0.59375 0.45312 1.4062 0 0.65625-0.28125 1.2188-0.28125 0.5625-0.6875 0.875-0.40625 0.29688-1.0156 0.45312-0.60938 0.15625-1.5 0.15625h-3.5469zm1.2344-5.3906h2.0156q0.8125 0 1.1719-0.10938 0.46875-0.14062 0.70312-0.46875 0.23438-0.32812 0.23438-0.8125 0-0.46875-0.21875-0.8125-0.21875-0.35938-0.64062-0.48438-0.40625-0.125-1.4062-0.125h-1.8594v2.8125zm0 4.2969h2.3125q0.59375 0 0.84375-0.046875 0.42188-0.078125 0.70312-0.25 0.28125-0.1875 0.46875-0.51562 0.1875-0.34375 0.1875-0.79688 0-0.51562-0.26562-0.89062-0.26562-0.39062-0.75-0.54688-0.46875-0.15625-1.3594-0.15625h-2.1406v3.2031z" fill="#000"/>
  <path d="m403.98 182.52l3.5781-9.3125h1.3125l3.8125 9.3125h-1.4062l-1.0781-2.8125h-3.8906l-1.0312 2.8125h-1.2969zm2.6875-3.8281h3.1562l-0.98438-2.5781q-0.4375-1.1719-0.65625-1.9219-0.17188 0.89062-0.5 1.7812l-1.0156 2.7188z" fill="#000"/>
  <path d="m405.69 198.52v-9.3125h1.2344v8.2188h4.5781v1.0938h-5.8125z" fill="#000"/>
  <path d="m403.98 214.52l3.5781-9.3125h1.3125l3.8125 9.3125h-1.4062l-1.0781-2.8125h-3.8906l-1.0312 2.8125h-1.2969zm2.6875-3.8281h3.1562l-0.98438-2.5781q-0.4375-1.1719-0.65625-1.9219-0.17188 0.89062-0.5 1.7812l-1.0156 2.7188z" fill="#000"/>
  <path d="m404.62 230.52v-9.3125h1.2656l4.8906 7.3125v-7.3125h1.1875v9.3125h-1.2656l-4.8906-7.3125v7.3125h-1.1875z" fill="#000"/>
  <path d="m411.27 243.25l1.2344 0.3125q-0.39062 1.5156-1.4062 2.3125-1 0.79688-2.4531 0.79688-1.5 0-2.4531-0.60938-0.9375-0.60938-1.4375-1.7656-0.48438-1.1719-0.48438-2.5 0-1.4531 0.5625-2.5312 0.5625-1.0938 1.5781-1.6562 1.0312-0.5625 2.2656-0.5625 1.3906 0 2.3438 0.71875 0.95312 0.70312 1.3281 2l-1.2188 0.28125q-0.32812-1.0156-0.9375-1.4688-0.60938-0.46875-1.5469-0.46875-1.0781 0-1.7969 0.51562-0.71875 0.51562-1.0156 1.375-0.28125 0.85938-0.28125 1.7812 0 1.1875 0.34375 2.0781 0.34375 0.89062 1.0625 1.3281 0.73438 0.4375 1.5938 0.4375 1.0312 0 1.75-0.59375 0.71875-0.60938 0.96875-1.7812z" fill="#000"/>
  <path d="m405.03 262.52v-9.3125h6.7188v1.1094h-5.4844v2.8438h5.1406v1.0938h-5.1406v3.1719h5.7031v1.0938h-6.9375z" fill="#000"/>
  <path d="m404.65 278.52v-9.3125h4.125q1.25 0 1.8906 0.26562 0.65625 0.25 1.0469 0.89062 0.39062 0.625 0.39062 1.3906 0 0.98438-0.65625 1.6719-0.64062 0.67188-1.9688 0.85938 0.48438 0.23438 0.73438 0.46875 0.54688 0.48438 1.0312 1.2344l1.6094 2.5312h-1.5469l-1.2344-1.9375q-0.53125-0.84375-0.89062-1.2812-0.34375-0.4375-0.625-0.60938-0.26562-0.1875-0.54688-0.26562-0.21875-0.03125-0.6875-0.03125h-1.4375v4.125h-1.2344zm1.2344-5.2031h2.6562q0.84375 0 1.3125-0.17188 0.48438-0.17188 0.71875-0.54688 0.25-0.39062 0.25-0.84375 0-0.65625-0.48438-1.0781-0.46875-0.4375-1.5-0.4375h-2.9531v3.0781z" fill="#000"/>
  <path d="m159.24 270.65h28.315v73.386h-28.315z" fill="#fff2cc"/>
  <path stroke-linejoin="round" d="m159.24 270.65h28.315v73.386h-28.315z" stroke="#000" stroke-linecap="butt"/>
  <path d="m170.65 304.14v-9.3125h1.2344v8.2188h4.5781v1.0938h-5.8125z" fill="#000"/>
  <path d="m169.91 320.14v-9.3125h3.4844q1.0781 0 1.7188 0.29688 0.64062 0.28125 1 0.875 0.375 0.57812 0.375 1.2188 0 0.59375-0.32812 1.125-0.32812 0.51562-0.96875 0.84375 0.84375 0.25 1.2969 0.84375 0.45312 0.59375 0.45312 1.4062 0 0.65625-0.28125 1.2188-0.28125 0.5625-0.6875 0.875-0.40625 0.29688-1.0156 0.45312-0.60938 0.15625-1.5 0.15625h-3.5469zm1.2344-5.3906h2.0156q0.8125 0 1.1719-0.10938 0.46875-0.14062 0.70312-0.46875 0.23438-0.32812 0.23438-0.8125 0-0.46875-0.21875-0.8125-0.21875-0.35938-0.64062-0.48438-0.40625-0.125-1.4062-0.125h-1.8594v2.8125zm0 4.2969h2.3125q0.59375 0 0.84375-0.046875 0.42188-0.078125 0.70312-0.25 0.28125-0.1875 0.46875-0.51562 0.1875-0.34375 0.1875-0.79688 0-0.51562-0.26562-0.89062-0.26562-0.39062-0.75-0.54688-0.46875-0.15625-1.3594-0.15625h-2.1406v3.2031z" fill="#000"/>
  <path d="m228.69 275.18h114.02v63.559h-114.02z" fill="#cfe2f3"/>
  <path stroke-linejoin="round" d="m228.69 275.18h114.02v63.559h-114.02z" stroke="#000" stroke-linecap="butt"/>
  <path d="m255.73 303.76l-2.4688-9.3125h1.2656l1.4219 6.1094q0.21873 0.95312 0.39061 1.9062 0.35938-1.5 0.42188-1.7188l1.7656-6.2969h1.4844l1.3281 4.7188q0.5 1.75 0.73438 3.2969 0.17188-0.89062 0.45312-2.0312l1.4688-5.9844h1.2344l-2.5469 9.3125h-1.1875l-1.9688-7.0938q-0.25-0.89062-0.29688-1.0938-0.14062 0.64062-0.26562 1.0938l-1.9688 7.0938h-1.2656zm15.423-2.1719l1.1875 0.14062q-0.28125 1.0469-1.0469 1.625-0.75 0.5625-1.9219 0.5625-1.4844 0-2.3594-0.90625-0.85938-0.92188-0.85938-2.5625 0-1.7031 0.875-2.6406 0.89062-0.9375 2.2812-0.9375 1.3594 0 2.2031 0.92188 0.85938 0.92188 0.85938 2.5781 0 0.10938 0 0.3125h-5.0312q0.0625 1.1094 0.625 1.7031 0.5625 0.59375 1.4062 0.59375 0.64062 0 1.0781-0.32812 0.45312-0.34375 0.70312-1.0625zm-3.75-1.8438h3.7656q-0.078125-0.85938-0.4375-1.2812-0.54688-0.65625-1.4062-0.65625-0.79688 0-1.3281 0.53125-0.53125 0.51562-0.59375 1.4062zm7.6 4.0156h-1.0625v-9.3125h1.1562v3.3281q0.71875-0.90625 1.8438-0.90625 0.625 0 1.1719 0.25 0.5625 0.25 0.92188 0.70312t0.5625 1.0938q0.20312 0.64062 0.20312 1.375 0 1.7344-0.85938 2.6875-0.85938 0.9375-2.0625 0.9375-1.1875 0-1.875-1v0.84375zm-0.015625-3.4219q0 1.2188 0.34375 1.75 0.53125 0.89062 1.4531 0.89062 0.75 0 1.2969-0.65625 0.54688-0.65625 0.54688-1.9375 0-1.3281-0.53125-1.9531-0.51562-0.625-1.2656-0.625-0.75 0-1.2969 0.65625-0.54688 0.64062-0.54688 1.875zm10.225 3.4219v-9.3125h3.5156q0.92188 0 1.4062 0.09375 0.6875 0.10938 1.1562 0.4375 0.46875 0.3125 0.75 0.89062t0.28125 1.2812q0 1.1875-0.76562 2.0156-0.75 0.8125-2.7188 0.8125h-2.3906v3.7812h-1.2344zm1.2344-4.875h2.4062q1.1875 0 1.6875-0.4375 0.51562-0.45312 0.51562-1.2656 0-0.57812-0.29688-0.98438-0.29688-0.42188-0.78125-0.5625-0.3125-0.078125-1.1562-0.078125h-2.375v3.3281zm7.4991 4.875v-6.7344h1.0312v1.0156q0.39062-0.71875 0.71875-0.9375 0.34375-0.23438 0.73438-0.23438 0.57812 0 1.1719 0.35938l-0.39062 1.0625q-0.42188-0.25-0.82812-0.25-0.375 0-0.6875 0.23438-0.29688 0.21875-0.42188 0.625-0.1875 0.60938-0.1875 1.3281v3.5312h-1.1406zm4.0321-3.375q0-1.875 1.0312-2.7656 0.875-0.75 2.125-0.75 1.3906 0 2.2656 0.90625 0.89062 0.90625 0.89062 2.5156 0 1.2969-0.39062 2.0469t-1.1406 1.1719q-0.75 0.40625-1.625 0.40625-1.4219 0-2.2969-0.90625-0.85938-0.90625-0.85938-2.625zm1.1719 0q0 1.2969 0.5625 1.9531 0.5625 0.64062 1.4219 0.64062 0.84375 0 1.4062-0.64062 0.57812-0.65625 0.57812-1.9844 0-1.25-0.57812-1.8906-0.5625-0.65625-1.4062-0.65625-0.85938 0-1.4219 0.64062-0.5625 0.64062-0.5625 1.9375zm5.8969 3.375l2.4688-3.5-2.2812-3.2344h1.4219l1.0469 1.5781q0.28125 0.45312 0.46875 0.75 0.26562-0.42188 0.5-0.73438l1.1406-1.5938h1.375l-2.3438 3.1719 2.5156 3.5625h-1.4062l-1.375-2.0938-0.375-0.5625-1.7656 2.6562h-1.3906zm7.3828 2.5938l-0.14062-1.0625q0.375 0.09375 0.65625 0.09375 0.39062 0 0.60938-0.125 0.23438-0.125 0.375-0.35938 0.10938-0.17188 0.35938-0.84375 0.03125-0.09375 0.09375-0.28125l-2.5625-6.75h1.2344l1.4062 3.8906q0.26562 0.75 0.48438 1.5625 0.20312-0.78125 0.46875-1.5312l1.4531-3.9219h1.1406l-2.5625 6.8438q-0.42188 1.1094-0.64062 1.5312-0.3125 0.5625-0.70312 0.82812t-0.9375 0.26562q-0.32812 0-0.73438-0.14062z" fill="#000"/>
  <path d="m266.65 316.78l1.1719-0.10938q0.078125 0.70312 0.375 1.1562 0.3125 0.4375 0.9375 0.71875 0.64062 0.26562 1.4375 0.26562 0.70312 0 1.2344-0.20312 0.54688-0.20312 0.8125-0.5625 0.26562-0.375 0.26562-0.8125t-0.26562-0.76562q-0.25-0.32812-0.82812-0.54688-0.375-0.14062-1.6562-0.45312t-1.7969-0.57812q-0.67188-0.34375-1-0.85938-0.32812-0.53125-0.32812-1.1719 0-0.70312 0.39062-1.3125 0.40625-0.60938 1.1719-0.92188 0.78125-0.32812 1.7188-0.32812 1.0312 0 1.8125 0.34375 0.79688 0.32812 1.2188 0.98438 0.4375 0.64062 0.46875 1.4531l-1.1875 0.09375q-0.09375-0.89062-0.64062-1.3281-0.54688-0.45312-1.625-0.45312-1.1094 0-1.625 0.40625-0.51562 0.40625-0.51562 0.98438 0 0.5 0.35938 0.82812t1.8594 0.67188q1.5 0.32812 2.0625 0.57812 0.8125 0.375 1.1875 0.95312 0.39062 0.57812 0.39062 1.3281 0 0.73438-0.42188 1.3906-0.42188 0.65625-1.2188 1.0312-0.79688 0.35938-1.7969 0.35938-1.2656 0-2.125-0.35938-0.84375-0.375-1.3281-1.1094-0.48438-0.75-0.51562-1.6719zm13.78 0.8125l1.1875 0.14062q-0.28125 1.0469-1.0469 1.625-0.75 0.5625-1.9219 0.5625-1.4844 0-2.3594-0.90625-0.85938-0.92188-0.85938-2.5625 0-1.7031 0.875-2.6406 0.89062-0.9375 2.2812-0.9375 1.3594 0 2.2031 0.92188 0.85938 0.92188 0.85938 2.5781 0 0.10938 0 0.3125h-5.0312q0.0625 1.1094 0.625 1.7031 0.5625 0.59375 1.4062 0.59375 0.64062 0 1.0781-0.32812 0.45312-0.34375 0.70312-1.0625zm-3.75-1.8438h3.7656q-0.078125-0.85938-0.4375-1.2812-0.54688-0.65625-1.4062-0.65625-0.79688 0-1.3281 0.53125-0.53125 0.51562-0.59375 1.4062zm6.5375 4.0156v-6.7344h1.0312v1.0156q0.39062-0.71875 0.71875-0.9375 0.34375-0.23438 0.73438-0.23438 0.57812 0 1.1719 0.35938l-0.39062 1.0625q-0.42188-0.25-0.82812-0.25-0.375 0-0.6875 0.23438-0.29688 0.21875-0.42188 0.625-0.1875 0.60938-0.1875 1.3281v3.5312h-1.1406zm6.329 0l-2.5625-6.7344h1.2031l1.4375 4.0312q0.23438 0.65625 0.4375 1.3594 0.15625-0.53125 0.42188-1.2812l1.5-4.1094h1.1719l-2.5469 6.7344h-1.0625zm9.3984-2.1719l1.1875 0.14062q-0.28125 1.0469-1.0469 1.625-0.75 0.5625-1.9219 0.5625-1.4844 0-2.3594-0.90625-0.85938-0.92188-0.85938-2.5625 0-1.7031 0.875-2.6406 0.89062-0.9375 2.2812-0.9375 1.3594 0 2.2031 0.92188 0.85938 0.92188 0.85938 2.5781 0 0.10938 0 0.3125h-5.0312q0.0625 1.1094 0.625 1.7031 0.5625 0.59375 1.4062 0.59375 0.64062 0 1.0781-0.32812 0.45312-0.34375 0.70312-1.0625zm-3.75-1.8438h3.7656q-0.078125-0.85938-0.4375-1.2812-0.54688-0.65625-1.4062-0.65625-0.79688 0-1.3281 0.53125-0.53125 0.51562-0.59375 1.4062zm6.5375 4.0156v-6.7344h1.0312v1.0156q0.39062-0.71875 0.71875-0.9375 0.34375-0.23438 0.73438-0.23438 0.57812 0 1.1719 0.35938l-0.39062 1.0625q-0.42188-0.25-0.82812-0.25-0.375 0-0.6875 0.23438-0.29688 0.21875-0.42188 0.625-0.1875 0.60938-0.1875 1.3281v3.5312h-1.1406z" fill="#000"/>
  <path d="m228.68 39.911h118.98v63.559h-118.98z" fill="#cfe2f3"/>
  <path stroke-linejoin="round" d="m228.68 39.911h118.98v63.559h-118.98z" stroke="#000" stroke-linecap="butt"/>
  <path d="m255.61 68.49l-2.4688-9.3125h1.2656l1.4219 6.1094q0.21875 0.95312 0.39062 1.9062 0.35938-1.5 0.42188-1.7188l1.7656-6.2969h1.4844l1.3281 4.7188q0.5 1.75 0.73438 3.2969 0.17188-0.89062 0.45312-2.0312l1.4688-5.9844h1.2344l-2.5469 9.3125h-1.1875l-1.9688-7.0938q-0.25-0.89062-0.29688-1.0938-0.14062 0.64062-0.26562 1.0938l-1.9688 7.0938h-1.2656zm15.423-2.1719l1.1875 0.14062q-0.28125 1.0469-1.0469 1.625-0.75 0.5625-1.9219 0.5625-1.4844 0-2.3594-0.90625-0.85938-0.92188-0.85938-2.5625 0-1.7031 0.875-2.6406 0.89062-0.9375 2.2812-0.9375 1.3594 0 2.2031 0.92188 0.85938 0.92188 0.85938 2.5781 0 0.10938 0 0.3125h-5.0312q0.0625 1.1094 0.625 1.7031 0.5625 0.59375 1.4062 0.59375 0.64062 0 1.0781-0.32812 0.45312-0.34375 0.70312-1.0625zm-3.75-1.8438h3.7656q-0.078125-0.85938-0.4375-1.2812-0.54688-0.65625-1.4062-0.65625-0.79688 0-1.3281 0.53125-0.53125 0.51562-0.59375 1.4062zm7.6 4.0156h-1.0625v-9.3125h1.1562v3.3281q0.71875-0.90625 1.8438-0.90625 0.625 0 1.1719 0.25 0.5625 0.25 0.92188 0.70312t0.5625 1.0938q0.20312 0.64062 0.20312 1.375 0 1.7344-0.85938 2.6875-0.85938 0.9375-2.0625 0.9375-1.1875 0-1.875-1v0.84375zm-0.015625-3.4219q0 1.2188 0.34375 1.75 0.53125 0.89062 1.4531 0.89062 0.75 0 1.2969-0.65625 0.54688-0.65625 0.54688-1.9375 0-1.3281-0.53125-1.9531-0.51562-0.625-1.2656-0.625-0.75 0-1.2969 0.65625-0.54688 0.64062-0.54688 1.875zm9.803 0.4375l1.1719-0.10938q0.078125 0.70312 0.375 1.1562 0.3125 0.4375 0.9375 0.71875 0.64062 0.26562 1.4375 0.26562 0.70312 0 1.2344-0.20312 0.54688-0.20312 0.8125-0.5625 0.26562-0.375 0.26562-0.8125t-0.26562-0.76562q-0.25-0.32812-0.82812-0.54688-0.375-0.14062-1.6562-0.45312t-1.7969-0.57812q-0.67188-0.34375-1-0.85938-0.32812-0.53125-0.32812-1.1719 0-0.70312 0.39062-1.3125 0.40625-0.60938 1.1719-0.92188 0.78125-0.32812 1.7188-0.32812 1.0312 0 1.8125 0.34375 0.79688 0.32812 1.2188 0.98438 0.4375 0.64062 0.46875 1.4531l-1.1875 0.09375q-0.09375-0.89062-0.64062-1.3281-0.54688-0.45312-1.625-0.45312-1.1094 0-1.625 0.40625-0.51562 0.40625-0.51562 0.98438 0 0.5 0.35938 0.82812t1.8594 0.67188q1.5 0.32812 2.0625 0.57812 0.8125 0.375 1.1875 0.95312 0.39062 0.57812 0.39062 1.3281 0 0.73438-0.42188 1.3906-0.42188 0.65625-1.2188 1.0312-0.79688 0.35938-1.7969 0.35938-1.2656 0-2.125-0.35938-0.84375-0.375-1.3281-1.1094-0.48438-0.75-0.51562-1.6719zm13.78 0.8125l1.1875 0.14062q-0.28125 1.0469-1.0469 1.625-0.75 0.5625-1.9219 0.5625-1.4844 0-2.3594-0.90625-0.85938-0.92188-0.85938-2.5625 0-1.7031 0.875-2.6406 0.89062-0.9375 2.2812-0.9375 1.3594 0 2.2031 0.92188 0.85938 0.92188 0.85938 2.5781 0 0.10938 0 0.3125h-5.0312q0.0625 1.1094 0.625 1.7031 0.5625 0.59375 1.4062 0.59375 0.64062 0 1.0781-0.32812 0.45312-0.34375 0.70312-1.0625zm-3.75-1.8438h3.7656q-0.078125-0.85938-0.4375-1.2812-0.54688-0.65625-1.4062-0.65625-0.79688 0-1.3281 0.53125-0.53125 0.51562-0.59375 1.4062zm6.5375 4.0156v-6.7344h1.0312v1.0156q0.39062-0.71875 0.71875-0.9375 0.34375-0.23438 0.73438-0.23438 0.57812 0 1.1719 0.35938l-0.39062 1.0625q-0.42188-0.25-0.82812-0.25-0.375 0-0.6875 0.23438-0.29688 0.21875-0.42188 0.625-0.1875 0.60938-0.1875 1.3281v3.5312h-1.1406zm6.329 0l-2.5625-6.7344h1.2031l1.4375 4.0312q0.23438 0.65625 0.4375 1.3594 0.15625-0.53125 0.42188-1.2812l1.5-4.1094h1.1719l-2.5469 6.7344h-1.0625zm9.3984-2.1719l1.1875 0.14062q-0.28125 1.0469-1.0469 1.625-0.75 0.5625-1.9219 0.5625-1.4844 0-2.3594-0.90625-0.85938-0.92188-0.85938-2.5625 0-1.7031 0.875-2.6406 0.89062-0.9375 2.2812-0.9375 1.3594 0 2.2031 0.92188 0.85938 0.92188 0.85938 2.5781 0 0.10938 0 0.3125h-5.0312q0.0625 1.1094 0.625 1.7031 0.5625 0.59375 1.4062 0.59375 0.64062 0 1.0781-0.32812 0.45312-0.34375 0.70312-1.0625zm-3.75-1.8438h3.7656q-0.078125-0.85938-0.4375-1.2812-0.54688-0.65625-1.4062-0.65625-0.79688 0-1.3281 0.53125-0.53125 0.51562-0.59375 1.4062zm6.5375 4.0156v-6.7344h1.0312v1.0156q0.39062-0.71875 0.71875-0.9375 0.34375-0.23438 0.73438-0.23438 0.57812 0 1.1719 0.35938l-0.39062 1.0625q-0.42188-0.25-0.82812-0.25-0.375 0-0.6875 0.23438-0.29688 0.21875-0.42188 0.625-0.1875 0.60938-0.1875 1.3281v3.5312h-1.1406z" fill="#000"/>
  <path d="m243.07 87.225q-0.95312-1.1875-1.6094-2.7812-0.65625-1.6094-0.65625-3.3281 0-1.5 0.5-2.8906 0.5625-1.6094 1.7656-3.2031h0.8125q-0.76562 1.3281-1.0156 1.8906-0.39062 0.875-0.60938 1.8281-0.26562 1.1875-0.26562 2.3906 0 3.0469 1.8906 6.0938h-0.8125zm6.6415-3.5625q-0.625 0.53125-1.2188 0.76562-0.57812 0.21875-1.25 0.21875-1.125 0-1.7188-0.54688-0.59375-0.54688-0.59375-1.3906 0-0.48438 0.21875-0.89062 0.23438-0.42188 0.59375-0.67188 0.375-0.25 0.82812-0.375 0.32812-0.078125 1.0156-0.17188 1.375-0.15625 2.0312-0.39062 0.015625-0.23438 0.015625-0.29688 0-0.70312-0.32812-0.98438-0.4375-0.39062-1.2969-0.39062-0.8125 0-1.2031 0.28125-0.375 0.28125-0.5625 1l-1.1094-0.14062q0.14062-0.71875 0.48438-1.1562 0.35938-0.45312 1.0156-0.6875 0.67188-0.23438 1.5312-0.23438 0.875 0 1.4062 0.20312 0.54688 0.20312 0.79688 0.51562 0.25 0.29688 0.35938 0.76562 0.046875 0.29688 0.046875 1.0625v1.5156q0 1.5938 0.078125 2.0156 0.078125 0.42188 0.28125 0.8125h-1.1875q-0.17188-0.35938-0.23438-0.82812zm-0.09375-2.5625q-0.625 0.26562-1.8594 0.4375-0.70312 0.10938-1 0.23438t-0.45312 0.375q-0.15625 0.23438-0.15625 0.53125 0 0.45312 0.34375 0.76562 0.34375 0.29688 1.0156 0.29688 0.65625 0 1.1719-0.28125 0.51562-0.29688 0.76562-0.79688 0.17188-0.375 0.17188-1.1406v-0.42188zm3.4437 3.3906v-1.2969h1.2969v1.2969h-1.2969zm3.3749 0v-9.3125h1.1406v5.3125l2.7031-2.7344h1.4844l-2.5781 2.5 2.8438 4.2344h-1.4062l-2.2344-3.4531-0.8125 0.78125v2.6719h-1.1406zm6.9922 0v-1.2969h1.2969v1.2969h-1.2969zm7.7655-0.82812q-0.625 0.53125-1.2188 0.76562-0.57812 0.21875-1.25 0.21875-1.125 0-1.7188-0.54688-0.59375-0.54688-0.59375-1.3906 0-0.48438 0.21875-0.89062 0.23438-0.42188 0.59375-0.67188 0.375-0.25 0.82812-0.375 0.32812-0.078125 1.0156-0.17188 1.375-0.15625 2.0312-0.39062 0.015625-0.23438 0.015625-0.29688 0-0.70312-0.32812-0.98438-0.4375-0.39062-1.2969-0.39062-0.8125 0-1.2031 0.28125-0.375 0.28125-0.5625 1l-1.1094-0.14062q0.14062-0.71875 0.48438-1.1562 0.35938-0.45312 1.0156-0.6875 0.67188-0.23438 1.5312-0.23438 0.875 0 1.4062 0.20312 0.54688 0.20312 0.79688 0.51562 0.25 0.29688 0.35938 0.76562 0.046875 0.29688 0.046875 1.0625v1.5156q0 1.5938 0.078125 2.0156 0.078125 0.42188 0.28125 0.8125h-1.1875q-0.17188-0.35938-0.23438-0.82812zm-0.09375-2.5625q-0.625 0.26562-1.8594 0.4375-0.70312 0.10938-1 0.23438t-0.45312 0.375q-0.15625 0.23438-0.15625 0.53125 0 0.45312 0.34375 0.76562 0.34375 0.29688 1.0156 0.29688 0.65625 0 1.1719-0.28125 0.51562-0.29688 0.76562-0.79688 0.17188-0.375 0.17188-1.1406v-0.42188zm7.0217 3.3906v-9.3125h6.2812v1.1094h-5.0469v2.875h4.375v1.0938h-4.375v4.2344h-1.2344zm7.9226 0v-6.7344h1.0312v1.0156q0.39062-0.71875 0.71875-0.9375 0.34375-0.23438 0.73438-0.23438 0.57812 0 1.1719 0.35938l-0.39062 1.0625q-0.42188-0.25-0.82812-0.25-0.375 0-0.6875 0.23438-0.29688 0.21875-0.42188 0.625-0.1875 0.60938-0.1875 1.3281v3.5312h-1.1406zm4.0321-3.375q0-1.875 1.0312-2.7656 0.875-0.75 2.125-0.75 1.3906 0 2.2656 0.90625 0.89062 0.90625 0.89062 2.5156 0 1.2969-0.39062 2.0469t-1.1406 1.1719q-0.75 0.40625-1.625 0.40625-1.4219 0-2.2969-0.90625-0.85938-0.90625-0.85938-2.625zm1.1719 0q0 1.2969 0.5625 1.9531 0.5625 0.64062 1.4219 0.64062 0.84375 0 1.4062-0.64062 0.57812-0.65625 0.57812-1.9844 0-1.25-0.57812-1.8906-0.5625-0.65625-1.4062-0.65625-0.85938 0-1.4219 0.64062-0.5625 0.64062-0.5625 1.9375zm6.6625 3.375v-6.7344h1.0312v0.95312q0.73438-1.1094 2.1406-1.1094 0.60938 0 1.1094 0.21875 0.51562 0.21875 0.76562 0.57812 0.26562 0.34375 0.35938 0.84375 0.0625 0.3125 0.0625 1.1094v4.1406h-1.1406v-4.0938q0-0.70312-0.14062-1.0469-0.125-0.34375-0.46875-0.54688-0.32812-0.21875-0.78125-0.21875-0.73438 0-1.2656 0.46875-0.53125 0.45312-0.53125 1.75v3.6875h-1.1406zm9.9125-1.0156l0.15625 1q-0.48438 0.10938-0.85938 0.10938-0.625 0-0.96875-0.20312t-0.48438-0.51562q-0.14062-0.32812-0.14062-1.3438v-3.8906h-0.82812v-0.875h0.82812v-1.6719l1.1406-0.6875v2.3594h1.1562v0.875h-1.1562v3.9531q0 0.48438 0.0625 0.625t0.1875 0.21875q0.14062 0.078125 0.39062 0.078125 0.20312 0 0.51562-0.03125zm1.3749 1.0156v-9.3125h6.7188v1.1094h-5.4844v2.8438h5.1406v1.0938h-5.1406v3.1719h5.7031v1.0938h-6.9375zm8.7179 0v-6.7344h1.0312v0.95312q0.73438-1.1094 2.1406-1.1094 0.60938 0 1.1094 0.21875 0.51562 0.21875 0.76562 0.57812 0.26562 0.34375 0.35938 0.84375 0.0625 0.3125 0.0625 1.1094v4.1406h-1.1406v-4.0938q0-0.70312-0.14062-1.0469-0.125-0.34375-0.46875-0.54688-0.32812-0.21875-0.78125-0.21875-0.73438 0-1.2656 0.46875-0.53125 0.45312-0.53125 1.75v3.6875h-1.1406zm11.787 0v-0.84375q-0.64062 1-1.8906 1-0.79688 0-1.4844-0.4375-0.67188-0.45312-1.0469-1.25-0.375-0.79688-0.375-1.8281 0-1.0156 0.34375-1.8281 0.34375-0.82812 1.0156-1.2656 0.67188-0.4375 1.5-0.4375 0.60938 0 1.0781 0.26562 0.48438 0.25 0.78125 0.65625v-3.3438h1.1406v9.3125h-1.0625zm-3.6094-3.3594q0 1.2969 0.53125 1.9375 0.54688 0.64062 1.2969 0.64062 0.75 0 1.2656-0.60938 0.53125-0.625 0.53125-1.875 0-1.3906-0.53125-2.0312-0.53125-0.65625-1.3125-0.65625-0.76562 0-1.2812 0.625-0.5 0.625-0.5 1.9688zm7.3969 6.0938h-0.82812q1.9062-3.0469 1.9062-6.0938 0-1.2031-0.28125-2.375-0.20312-0.95312-0.59375-1.8281-0.25-0.5625-1.0312-1.9062h0.82812q1.1875 1.5938 1.7656 3.2031 0.48438 1.3906 0.48438 2.8906 0 1.7188-0.65625 3.3281-0.65625 1.5938-1.5938 2.7812z" fill="#000"/>
  <path d="m228.68 143.34h118.98v63.559h-118.98z" fill="#cfe2f3"/>
  <path stroke-linejoin="round" d="m228.68 143.34h118.98v63.559h-118.98z" stroke="#000" stroke-linecap="butt"/>
  <path d="m255.61 171.92l-2.4688-9.3125h1.2656l1.4219 6.1094q0.21875 0.95312 0.39062 1.9062 0.35938-1.5 0.42188-1.7188l1.7656-6.2969h1.4844l1.3281 4.7188q0.5 1.75 0.73438 3.2969 0.17188-0.89062 0.45312-2.0312l1.4688-5.9844h1.2344l-2.5469 9.3125h-1.1875l-1.9688-7.0938q-0.25-0.89062-0.29688-1.0938-0.14062 0.64062-0.26562 1.0938l-1.9688 7.0938h-1.2656zm15.423-2.1719l1.1875 0.14062q-0.28125 1.0469-1.0469 1.625-0.75 0.5625-1.9219 0.5625-1.4844 0-2.3594-0.90625-0.85938-0.92188-0.85938-2.5625 0-1.7031 0.875-2.6406 0.89062-0.9375 2.2812-0.9375 1.3594 0 2.2031 0.92188 0.85938 0.92188 0.85938 2.5781 0 0.10938 0 0.3125h-5.0312q0.0625 1.1094 0.625 1.7031 0.5625 0.59375 1.4062 0.59375 0.64062 0 1.0781-0.32812 0.45312-0.34375 0.70312-1.0625zm-3.75-1.8438h3.7656q-0.078125-0.85938-0.4375-1.2812-0.54688-0.65625-1.4062-0.65625-0.79688 0-1.3281 0.53125-0.53125 0.51562-0.59375 1.4062zm7.6 4.0156h-1.0625v-9.3125h1.1562v3.3281q0.71875-0.90625 1.8438-0.90625 0.625 0 1.1719 0.25 0.5625 0.25 0.92188 0.70312t0.5625 1.0938q0.20312 0.64062 0.20312 1.375 0 1.7344-0.85938 2.6875-0.85938 0.9375-2.0625 0.9375-1.1875 0-1.875-1v0.84375zm-0.015625-3.4219q0 1.2188 0.34375 1.75 0.53125 0.89062 1.4531 0.89062 0.75 0 1.2969-0.65625 0.54688-0.65625 0.54688-1.9375 0-1.3281-0.53125-1.9531-0.51562-0.625-1.2656-0.625-0.75 0-1.2969 0.65625-0.54688 0.64062-0.54688 1.875zm9.803 0.4375l1.1719-0.10938q0.078125 0.70312 0.375 1.1562 0.3125 0.4375 0.9375 0.71875 0.64062 0.26562 1.4375 0.26562 0.70312 0 1.2344-0.20312 0.54688-0.20312 0.8125-0.5625 0.26562-0.375 0.26562-0.8125t-0.26562-0.76562q-0.25-0.32812-0.82812-0.54688-0.375-0.14062-1.6562-0.45312t-1.7969-0.57812q-0.67188-0.34375-1-0.85938-0.32812-0.53125-0.32812-1.1719 0-0.70312 0.39062-1.3125 0.40625-0.60938 1.1719-0.92188 0.78125-0.32812 1.7188-0.32812 1.0312 0 1.8125 0.34375 0.79688 0.32812 1.2188 0.98438 0.4375 0.64062 0.46875 1.4531l-1.1875 0.09375q-0.09375-0.89062-0.64062-1.3281-0.54688-0.45312-1.625-0.45312-1.1094 0-1.625 0.40625-0.51562 0.40625-0.51562 0.98438 0 0.5 0.35938 0.82812t1.8594 0.67188q1.5 0.32812 2.0625 0.57812 0.8125 0.375 1.1875 0.95312 0.39062 0.57812 0.39062 1.3281 0 0.73438-0.42188 1.3906-0.42188 0.65625-1.2188 1.0312-0.79688 0.35938-1.7969 0.35938-1.2656 0-2.125-0.35938-0.84375-0.375-1.3281-1.1094-0.48438-0.75-0.51562-1.6719zm13.78 0.8125l1.1875 0.14062q-0.28125 1.0469-1.0469 1.625-0.75 0.5625-1.9219 0.5625-1.4844 0-2.3594-0.90625-0.85938-0.92188-0.85938-2.5625 0-1.7031 0.875-2.6406 0.89062-0.9375 2.2812-0.9375 1.3594 0 2.2031 0.92188 0.85938 0.92188 0.85938 2.5781 0 0.10938 0 0.3125h-5.0312q0.0625 1.1094 0.625 1.7031 0.5625 0.59375 1.4062 0.59375 0.64062 0 1.0781-0.32812 0.45312-0.34375 0.70312-1.0625zm-3.75-1.8438h3.7656q-0.078125-0.85938-0.4375-1.2812-0.54688-0.65625-1.4062-0.65625-0.79688 0-1.3281 0.53125-0.53125 0.51562-0.59375 1.4062zm6.5375 4.0156v-6.7344h1.0312v1.0156q0.39062-0.71875 0.71875-0.9375 0.34375-0.23438 0.73438-0.23438 0.57812 0 1.1719 0.35938l-0.39062 1.0625q-0.42188-0.25-0.82812-0.25-0.375 0-0.6875 0.23438-0.29688 0.21875-0.42188 0.625-0.1875 0.60938-0.1875 1.3281v3.5312h-1.1406zm6.329 0l-2.5625-6.7344h1.2031l1.4375 4.0312q0.23438 0.65625 0.4375 1.3594 0.15625-0.53125 0.42188-1.2812l1.5-4.1094h1.1719l-2.5469 6.7344h-1.0625zm9.3984-2.1719l1.1875 0.14062q-0.28125 1.0469-1.0469 1.625-0.75 0.5625-1.9219 0.5625-1.4844 0-2.3594-0.90625-0.85938-0.92188-0.85938-2.5625 0-1.7031 0.875-2.6406 0.89062-0.9375 2.2812-0.9375 1.3594 0 2.2031 0.92188 0.85938 0.92188 0.85938 2.5781 0 0.10938 0 0.3125h-5.0312q0.0625 1.1094 0.625 1.7031 0.5625 0.59375 1.4062 0.59375 0.64062 0 1.0781-0.32812 0.45312-0.34375 0.70312-1.0625zm-3.75-1.8438h3.7656q-0.078125-0.85938-0.4375-1.2812-0.54688-0.65625-1.4062-0.65625-0.79688 0-1.3281 0.53125-0.53125 0.51562-0.59375 1.4062zm6.5375 4.0156v-6.7344h1.0312v1.0156q0.39062-0.71875 0.71875-0.9375 0.34375-0.23438 0.73438-0.23438 0.57812 0 1.1719 0.35938l-0.39062 1.0625q-0.42188-0.25-0.82812-0.25-0.375 0-0.6875 0.23438-0.29688 0.21875-0.42188 0.625-0.1875 0.60938-0.1875 1.3281v3.5312h-1.1406z" fill="#000"/>
  <path d="m243.07 190.66q-0.95312-1.1875-1.6094-2.7812-0.65625-1.6094-0.65625-3.3281 0-1.5 0.5-2.8906 0.5625-1.6094 1.7656-3.2031h0.8125q-0.76562 1.3281-1.0156 1.8906-0.39062 0.875-0.60938 1.8281-0.26562 1.1875-0.26562 2.3906 0 3.0469 1.8906 6.0938h-0.8125zm6.6415-3.5625q-0.625 0.53125-1.2188 0.76562-0.57812 0.21875-1.25 0.21875-1.125 0-1.7188-0.54688-0.59375-0.54688-0.59375-1.3906 0-0.48438 0.21875-0.89062 0.23438-0.42188 0.59375-0.67188 0.375-0.25 0.82812-0.375 0.32812-0.078125 1.0156-0.17188 1.375-0.15625 2.0312-0.39062 0.015625-0.23438 0.015625-0.29688 0-0.70312-0.32812-0.98438-0.4375-0.39062-1.2969-0.39062-0.8125 0-1.2031 0.28125-0.375 0.28125-0.5625 1l-1.1094-0.14062q0.14062-0.71875 0.48438-1.1562 0.35938-0.45312 1.0156-0.6875 0.67188-0.23438 1.5312-0.23438 0.875 0 1.4062 0.20312 0.54688 0.20312 0.79688 0.51562 0.25 0.29688 0.35938 0.76562 0.046875 0.29688 0.046875 1.0625v1.5156q0 1.5938 0.078125 2.0156 0.078125 0.42188 0.28125 0.8125h-1.1875q-0.17188-0.35938-0.23438-0.82812zm-0.09375-2.5625q-0.625 0.26562-1.8594 0.4375-0.70312 0.10938-1 0.23438t-0.45312 0.375q-0.15625 0.23438-0.15625 0.53125 0 0.45312 0.34375 0.76562 0.34375 0.29688 1.0156 0.29688 0.65625 0 1.1719-0.28125 0.51562-0.29688 0.76562-0.79688 0.17188-0.375 0.17188-1.1406v-0.42188zm3.4437 3.3906v-1.2969h1.2969v1.2969h-1.2969zm3.3749 0v-9.3125h1.1406v5.3125l2.7031-2.7344h1.4844l-2.5781 2.5 2.8438 4.2344h-1.4062l-2.2344-3.4531-0.8125 0.78125v2.6719h-1.1406zm6.9922 0v-1.2969h1.2969v1.2969h-1.2969zm7.7655-0.82812q-0.625 0.53125-1.2188 0.76562-0.57812 0.21875-1.25 0.21875-1.125 0-1.7188-0.54688-0.59375-0.54688-0.59375-1.3906 0-0.48438 0.21875-0.89062 0.23438-0.42188 0.59375-0.67188 0.375-0.25 0.82812-0.375 0.32812-0.078125 1.0156-0.17188 1.375-0.15625 2.0312-0.39062 0.015625-0.23438 0.015625-0.29688 0-0.70312-0.32812-0.98438-0.4375-0.39062-1.2969-0.39062-0.8125 0-1.2031 0.28125-0.375 0.28125-0.5625 1l-1.1094-0.14062q0.14062-0.71875 0.48438-1.1562 0.35938-0.45312 1.0156-0.6875 0.67188-0.23438 1.5312-0.23438 0.875 0 1.4062 0.20312 0.54688 0.20312 0.79688 0.51562 0.25 0.29688 0.35938 0.76562 0.046875 0.29688 0.046875 1.0625v1.5156q0 1.5938 0.078125 2.0156 0.078125 0.42188 0.28125 0.8125h-1.1875q-0.17188-0.35938-0.23438-0.82812zm-0.09375-2.5625q-0.625 0.26562-1.8594 0.4375-0.70312 0.10938-1 0.23438t-0.45312 0.375q-0.15625 0.23438-0.15625 0.53125 0 0.45312 0.34375 0.76562 0.34375 0.29688 1.0156 0.29688 0.65625 0 1.1719-0.28125 0.51562-0.29688 0.76562-0.79688 0.17188-0.375 0.17188-1.1406v-0.42188zm7.0217 3.3906v-9.3125h6.2812v1.1094h-5.0469v2.875h4.375v1.0938h-4.375v4.2344h-1.2344zm7.9226 0v-6.7344h1.0312v1.0156q0.39062-0.71875 0.71875-0.9375 0.34375-0.23438 0.73438-0.23438 0.57812 0 1.1719 0.35938l-0.39062 1.0625q-0.42188-0.25-0.82812-0.25-0.375 0-0.6875 0.23438-0.29688 0.21875-0.42188 0.625-0.1875 0.60938-0.1875 1.3281v3.5312h-1.1406zm4.0321-3.375q0-1.875 1.0312-2.7656 0.875-0.75 2.125-0.75 1.3906 0 2.2656 0.90625 0.89062 0.90625 0.89062 2.5156 0 1.2969-0.39062 2.0469t-1.1406 1.1719q-0.75 0.40625-1.625 0.40625-1.4219 0-2.2969-0.90625-0.85938-0.90625-0.85938-2.625zm1.1719 0q0 1.2969 0.5625 1.9531 0.5625 0.64062 1.4219 0.64062 0.84375 0 1.4062-0.64062 0.57812-0.65625 0.57812-1.9844 0-1.25-0.57812-1.8906-0.5625-0.65625-1.4062-0.65625-0.85938 0-1.4219 0.64062-0.5625 0.64062-0.5625 1.9375zm6.6625 3.375v-6.7344h1.0312v0.95312q0.73438-1.1094 2.1406-1.1094 0.60938 0 1.1094 0.21875 0.51562 0.21875 0.76562 0.57812 0.26562 0.34375 0.35938 0.84375 0.0625 0.3125 0.0625 1.1094v4.1406h-1.1406v-4.0938q0-0.70312-0.14062-1.0469-0.125-0.34375-0.46875-0.54688-0.32812-0.21875-0.78125-0.21875-0.73438 0-1.2656 0.46875-0.53125 0.45312-0.53125 1.75v3.6875h-1.1406zm9.9125-1.0156l0.15625 1q-0.48438 0.10938-0.85938 0.10938-0.625 0-0.96875-0.20312t-0.48438-0.51562q-0.14062-0.32812-0.14062-1.3438v-3.8906h-0.82812v-0.875h0.82812v-1.6719l1.1406-0.6875v2.3594h1.1562v0.875h-1.1562v3.9531q0 0.48438 0.0625 0.625t0.1875 0.21875q0.14062 0.078125 0.39062 0.078125 0.20312 0 0.51562-0.03125zm1.3749 1.0156v-9.3125h6.7188v1.1094h-5.4844v2.8438h5.1406v1.0938h-5.1406v3.1719h5.7031v1.0938h-6.9375zm8.7179 0v-6.7344h1.0312v0.95312q0.73438-1.1094 2.1406-1.1094 0.60938 0 1.1094 0.21875 0.51562 0.21875 0.76562 0.57812 0.26562 0.34375 0.35938 0.84375 0.0625 0.3125 0.0625 1.1094v4.1406h-1.1406v-4.0938q0-0.70312-0.14062-1.0469-0.125-0.34375-0.46875-0.54688-0.32812-0.21875-0.78125-0.21875-0.73438 0-1.2656 0.46875-0.53125 0.45312-0.53125 1.75v3.6875h-1.1406zm11.787 0v-0.84375q-0.64062 1-1.8906 1-0.79688 0-1.4844-0.4375-0.67188-0.45312-1.0469-1.25-0.375-0.79688-0.375-1.8281 0-1.0156 0.34375-1.8281 0.34375-0.82812 1.0156-1.2656 0.67188-0.4375 1.5-0.4375 0.60938 0 1.0781 0.26562 0.48438 0.25 0.78125 0.65625v-3.3438h1.1406v9.3125h-1.0625zm-3.6094-3.3594q0 1.2969 0.53125 1.9375 0.54688 0.64062 1.2969 0.64062 0.75 0 1.2656-0.60938 0.53125-0.625 0.53125-1.875 0-1.3906-0.53125-2.0312-0.53125-0.65625-1.3125-0.65625-0.76562 0-1.2812 0.625-0.5 0.625-0.5 1.9688zm7.3969 6.0938h-0.82812q1.9062-3.0469 1.9062-6.0938 0-1.2031-0.28125-2.375-0.20312-0.95312-0.59375-1.8281-0.25-0.5625-1.0312-1.9062h0.82812q1.1875 1.5938 1.7656 3.2031 0.48438 1.3906 0.48438 2.8906 0 1.7188-0.65625 3.3281-0.65625 1.5938-1.5938 2.7812z" fill="#000"/>
  <path fill-opacity="0" d="m252.9 89.092h70.548v48h-70.548z" fill="#000"/>
  <path d="m264.8 128.81v-3.2031h3.2031v3.2031h-3.2031zm8.8906 0v-3.2031h3.2031v3.2031h-3.2031zm8.8906 0v-3.2031h3.2031v3.2031h-3.2031z" fill="#000"/>
  <path d="m647.6 199.69c0-7.3401 18.627-13.29 41.605-13.29s41.605 5.9503 41.605 13.29v53.162c0 7.3401-18.627 13.29-41.605 13.29s-41.605-5.9503-41.605-13.29z" fill="#cfe2f3"/>
  <path fill-opacity="0" d="m730.81 199.69c0 7.3401-18.627 13.29-41.605 13.29s-41.605-5.9503-41.605-13.29" fill="#000"/>
  <path fill-opacity="0" d="m647.6 199.69c0-7.3401 18.627-13.29 41.605-13.29s41.605 5.9503 41.605 13.29v53.162c0 7.3401-18.627 13.29-41.605 13.29s-41.605-5.9503-41.605-13.29z" fill="#000"/>
  <path stroke-linejoin="round" d="m730.81 199.69c0 7.3401-18.627 13.29-41.605 13.29s-41.605-5.9503-41.605-13.29" stroke="#000" stroke-linecap="butt"/>
  <path stroke-linejoin="round" d="m647.6 199.69c0-7.3401 18.627-13.29 41.605-13.29s41.605 5.9503 41.605 13.29v53.162c0 7.3401-18.627 13.29-41.605 13.29s-41.605-5.9503-41.605-13.29z" stroke="#000" stroke-linecap="butt"/>
  <path d="m676.13 229.72v-9.3125h3.2031q1.0938 0 1.6562 0.14062 0.8125 0.1875 1.375 0.67188 0.73438 0.60938 1.0938 1.5781 0.375 0.96875 0.375 2.2188 0 1.0625-0.25 1.8906-0.25 0.8125-0.64062 1.3438-0.39062 0.53125-0.85938 0.84375-0.45312 0.3125-1.1094 0.46875-0.64062 0.15625-1.4844 0.15625h-3.3594zm1.2344-1.0938h1.9844q0.92188 0 1.4375-0.17188 0.53125-0.17188 0.84375-0.48438 0.4375-0.4375 0.67188-1.1719 0.25-0.75 0.25-1.7969 0-1.4688-0.48438-2.25-0.46875-0.78125-1.1562-1.0469-0.5-0.1875-1.5938-0.1875h-1.9531v7.1094zm12.641 0.26562q-0.625 0.53125-1.2188 0.76562-0.57812 0.21875-1.25 0.21875-1.125 0-1.7188-0.54688-0.59375-0.54688-0.59375-1.3906 0-0.48438 0.21875-0.89062 0.23438-0.42188 0.59375-0.67188 0.375-0.25 0.82812-0.375 0.32812-0.078125 1.0156-0.17188 1.375-0.15625 2.0312-0.39062 0.015625-0.23438 0.015625-0.29688 0-0.70312-0.32812-0.98438-0.4375-0.39062-1.2969-0.39062-0.8125 0-1.2031 0.28125-0.375 0.28125-0.5625 1l-1.1094-0.14062q0.14062-0.71875 0.48438-1.1562 0.35938-0.45312 1.0156-0.6875 0.67188-0.23438 1.5312-0.23438 0.875 0 1.4062 0.20312 0.54688 0.20312 0.79688 0.51562 0.25 0.29688 0.35938 0.76562 0.046875 0.29688 0.046875 1.0625v1.5156q0 1.5938 0.078125 2.0156 0.078125 0.42188 0.28125 0.8125h-1.1875q-0.17188-0.35938-0.23438-0.82812zm-0.09375-2.5625q-0.625 0.26562-1.8594 0.4375-0.70312 0.10938-1 0.23438t-0.45312 0.375q-0.15625 0.23438-0.15625 0.53125 0 0.45312 0.34375 0.76562 0.34375 0.29688 1.0156 0.29688 0.65625 0 1.1719-0.28125 0.51562-0.29688 0.76562-0.79688 0.17188-0.375 0.17188-1.1406v-0.42188zm5.6156 2.375l0.15625 1q-0.48438 0.10938-0.85938 0.10938-0.625 0-0.96875-0.20312t-0.48438-0.51562q-0.14062-0.32812-0.14062-1.3438v-3.8906h-0.82812v-0.875h0.82812v-1.6719l1.1406-0.6875v2.3594h1.1562v0.875h-1.1562v3.9531q0 0.48438 0.0625 0.625t0.1875 0.21875q0.14062 0.078125 0.39062 0.078125 0.20312 0 0.51562-0.03125zm5.5936 0.1875q-0.625 0.53125-1.2188 0.76562-0.57812 0.21875-1.25 0.21875-1.125 0-1.7188-0.54688-0.59375-0.54688-0.59375-1.3906 0-0.48438 0.21875-0.89062 0.23438-0.42188 0.59375-0.67188 0.375-0.25 0.82812-0.375 0.32812-0.078125 1.0156-0.17188 1.375-0.15625 2.0312-0.39062 0.015625-0.23438 0.015625-0.29688 0-0.70312-0.32812-0.98438-0.4375-0.39062-1.2969-0.39062-0.8125 0-1.2031 0.28125-0.375 0.28125-0.5625 1l-1.1094-0.14062q0.14062-0.71875 0.48438-1.1562 0.35938-0.45312 1.0156-0.6875 0.67188-0.23438 1.5312-0.23438 0.875 0 1.4062 0.20312 0.54688 0.20312 0.79688 0.51562 0.25 0.29688 0.35938 0.76562 0.046875 0.29688 0.046875 1.0625v1.5156q0 1.5938 0.078125 2.0156 0.078125 0.42188 0.28125 0.8125h-1.1875q-0.17188-0.35938-0.23438-0.82812zm-0.09375-2.5625q-0.625 0.26562-1.8594 0.4375-0.70312 0.10938-1 0.23438t-0.45312 0.375q-0.15625 0.23438-0.15625 0.53125 0 0.45312 0.34375 0.76562 0.34375 0.29688 1.0156 0.29688 0.65625 0 1.1719-0.28125 0.51562-0.29688 0.76562-0.79688 0.17188-0.375 0.17188-1.1406v-0.42188z" fill="#000"/>
  <path d="m662.37 242.74l1.1719-0.10938q0.078125 0.70312 0.375 1.1562 0.3125 0.4375 0.9375 0.71875 0.64062 0.26562 1.4375 0.26562 0.70312 0 1.2344-0.20312 0.54688-0.20312 0.8125-0.5625 0.26562-0.375 0.26562-0.8125t-0.26562-0.76562q-0.25-0.32812-0.82812-0.54688-0.375-0.14062-1.6562-0.45312t-1.7969-0.57812q-0.67188-0.34375-1-0.85938-0.32812-0.53125-0.32812-1.1719 0-0.70312 0.39062-1.3125 0.40625-0.60938 1.1719-0.92188 0.78125-0.32812 1.7188-0.32812 1.0312 0 1.8125 0.34375 0.79688 0.32812 1.2188 0.98438 0.4375 0.64062 0.46875 1.4531l-1.1875 0.09375q-0.09375-0.89062-0.64062-1.3281-0.54688-0.45312-1.625-0.45312-1.1094 0-1.625 0.40625-0.51562 0.40625-0.51562 0.98438 0 0.5 0.35938 0.82812t1.8594 0.67188q1.5 0.32812 2.0625 0.57812 0.8125 0.375 1.1875 0.95312 0.39062 0.57812 0.39062 1.3281 0 0.73438-0.42188 1.3906-0.42188 0.65625-1.2188 1.0312-0.79688 0.35938-1.7969 0.35938-1.2656 0-2.125-0.35938-0.84375-0.375-1.3281-1.1094-0.48438-0.75-0.51562-1.6719zm8.7491-0.39062q0-1.875 1.0312-2.7656 0.875-0.75 2.125-0.75 1.3906 0 2.2656 0.90625 0.89062 0.90625 0.89062 2.5156 0 1.2969-0.39062 2.0469t-1.1406 1.1719q-0.75 0.40625-1.625 0.40625-1.4219 0-2.2969-0.90625-0.85938-0.90625-0.85938-2.625zm1.1719 0q0 1.2969 0.5625 1.9531 0.5625 0.64062 1.4219 0.64062 0.84375 0 1.4062-0.64062 0.57812-0.65625 0.57812-1.9844 0-1.25-0.57812-1.8906-0.5625-0.65625-1.4062-0.65625-0.85938 0-1.4219 0.64062-0.5625 0.64062-0.5625 1.9375zm11.084 3.375v-0.98438q-0.79688 1.1406-2.1406 1.1406-0.59375 0-1.125-0.23438-0.51562-0.23438-0.76562-0.57812-0.25-0.34375-0.34375-0.84375-0.078125-0.32812-0.078125-1.0625v-4.1719h1.1406v3.7344q0 0.89062 0.078125 1.2031 0.10938 0.45312 0.45312 0.71875 0.34375 0.25 0.85938 0.25 0.51562 0 0.96875-0.26562 0.45312-0.26562 0.64062-0.71875 0.1875-0.45312 0.1875-1.3125v-3.6094h1.1406v6.7344h-1.0156zm2.975 0v-6.7344h1.0312v1.0156q0.39062-0.71875 0.71875-0.9375 0.34375-0.23438 0.73438-0.23438 0.57812 0 1.1719 0.35938l-0.39062 1.0625q-0.42188-0.25-0.82812-0.25-0.375 0-0.6875 0.23438-0.29688 0.21875-0.42188 0.625-0.1875 0.60938-0.1875 1.3281v3.5312h-1.1406zm8.8447-2.4688l1.125 0.14062q-0.17188 1.1719-0.9375 1.8281-0.76562 0.65625-1.8594 0.65625-1.3906 0-2.2344-0.90625-0.82812-0.90625-0.82812-2.5938 0-1.0938 0.35938-1.9062 0.35938-0.82812 1.0938-1.2344 0.73438-0.40625 1.6094-0.40625 1.0938 0 1.7969 0.5625 0.70312 0.54688 0.89062 1.5625l-1.1094 0.17188q-0.15625-0.67188-0.5625-1.0156-0.39062-0.34375-0.96875-0.34375-0.85938 0-1.4062 0.625-0.53125 0.60938-0.53125 1.9531 0 1.3594 0.51562 1.9844 0.51562 0.60938 1.3594 0.60938 0.67188 0 1.125-0.40625 0.45312-0.42188 0.5625-1.2812zm6.8828 0.29688l1.1875 0.14062q-0.28125 1.0469-1.0469 1.625-0.75 0.5625-1.9219 0.5625-1.4844 0-2.3594-0.90625-0.85938-0.92188-0.85938-2.5625 0-1.7031 0.875-2.6406 0.89062-0.9375 2.2812-0.9375 1.3594 0 2.2031 0.92188 0.85938 0.92188 0.85938 2.5781 0 0.10938 0 0.3125h-5.0312q0.0625 1.1094 0.625 1.7031 0.5625 0.59375 1.4062 0.59375 0.64062 0 1.0781-0.32812 0.45312-0.34375 0.70312-1.0625zm-3.75-1.8438h3.7656q-0.078125-0.85938-0.4375-1.2812-0.54688-0.65625-1.4062-0.65625-0.79688 0-1.3281 0.53125-0.53125 0.51562-0.59375 1.4062zm10.35 4.0156v-9.3125h3.4844q1.0781 0 1.7188 0.29688 0.64062 0.28125 1 0.875 0.375 0.57812 0.375 1.2188 0 0.59375-0.32812 1.125-0.32812 0.51562-0.96875 0.84375 0.84375 0.25 1.2969 0.84375 0.45312 0.59375 0.45312 1.4062 0 0.65625-0.28125 1.2188-0.28125 0.5625-0.6875 0.875-0.40625 0.29688-1.0156 0.45312-0.60938 0.15625-1.5 0.15625h-3.5469zm1.2344-5.3906h2.0156q0.8125 0 1.1719-0.10938 0.46875-0.14062 0.70312-0.46875 0.23438-0.32812 0.23438-0.8125 0-0.46875-0.21875-0.8125-0.21875-0.35938-0.64062-0.48438-0.40625-0.125-1.4062-0.125h-1.8594v2.8125zm0 4.2969h2.3125q0.59375 0 0.84375-0.046875 0.42188-0.078125 0.70312-0.25 0.28125-0.1875 0.46875-0.51562 0.1875-0.34375 0.1875-0.79688 0-0.51562-0.26562-0.89062-0.26562-0.39062-0.75-0.54688-0.46875-0.15625-1.3594-0.15625h-2.1406v3.2031z" fill="#000"/>
  <path d="m641.38 104.22c-0.94116-5.8271 2.1489-11.596 7.959-14.858 5.8101-3.2621 13.321-3.4456 19.346-0.47283 2.1342-3.3881 6.0404-5.7274 10.537-6.3102 4.4967-0.58282 9.0557 0.65924 12.298 3.3505 1.8181-3.0719 5.3879-5.1358 9.4427-5.4593 4.0548-0.32356 8.0208 1.139 10.491 3.8688 3.2846-3.2562 8.5105-4.6272 13.416-3.5197 4.9059 1.1074 8.6107 4.4944 9.5112 8.6953 4.0242 0.92477 7.3763 3.2757 9.1902 6.4453s1.9116 6.847 0.26801 10.082c3.9626 4.3451 4.8896 10.135 2.4349 15.209-2.4547 5.0738-7.9221 8.6693-14.362 9.4449-0.04541 4.7619-3.1453 9.1314-8.1048 11.424-4.9595 2.2929-11.004 2.151-15.804-0.37077-2.0446 5.7032-7.7993 9.8996-14.778 10.776-6.9787 0.87654-13.93-1.7239-17.851-6.6778-4.8065 2.4418-10.574 3.1452-16.001 1.9515-5.4272-1.1937-10.057-4.1839-12.845-8.2961-4.9116 0.48422-9.6603-1.6596-11.89-5.3676-2.2292-3.708-1.4644-8.1907 1.9151-11.223-4.3813-2.1725-6.6168-6.4834-5.541-10.685 1.0758-4.2014 5.2193-7.3412 10.27-7.7822z" fill="#cfe2f3"/>
  <path fill-opacity="0" d="m636.55 122.91c2.0675 1.0252 4.456 1.4903 6.8447 1.3327m3.1287 15.259c1.0272-0.10127 2.0341-0.31573 2.9947-0.63785m25.85 6.9821c-0.72247-0.9128-1.3274-1.8882-1.8044-2.9096m34.435-1.1889c0.37274-1.0398 0.61426-2.1099 0.72052-3.1926m23.188-7.8605c0.048279-5.0698-3.3696-9.7118-8.7857-11.932m20.713-12.721c-0.87714 1.7264-2.2161 3.2578-3.912 4.4742m-5.5453-21.002c0.14941 0.69715 0.21857 1.4048 0.20648 2.1131m-23.134-7.2885c-0.81934 0.81226-1.4944 1.7199-2.0041 2.6948m-17.929-1.1046c-0.43665 0.73776-0.7627 1.5184-0.9707 2.3241m-21.865 0.6357c1.2748 0.62904 2.4543 1.3862 3.5124 2.2547m-30.817 13.076c0.12976 0.80312 0.33472 1.5964 0.61298 2.3722" fill="#000"/>
  <path stroke-linejoin="round" d="m641.38 104.22c-0.94116-5.8271 2.1489-11.596 7.959-14.858 5.8101-3.2621 13.321-3.4456 19.346-0.47283 2.1342-3.3881 6.0404-5.7274 10.537-6.3102 4.4967-0.58282 9.0557 0.65924 12.298 3.3505 1.8181-3.0719 5.3879-5.1358 9.4427-5.4593 4.0548-0.32356 8.0208 1.139 10.491 3.8688 3.2846-3.2562 8.5105-4.6272 13.416-3.5197 4.9059 1.1074 8.6107 4.4944 9.5112 8.6953 4.0242 0.92477 7.3763 3.2757 9.1902 6.4453s1.9116 6.847 0.26801 10.082c3.9626 4.3451 4.8896 10.135 2.4349 15.209-2.4547 5.0738-7.9221 8.6693-14.362 9.4449-0.04541 4.7619-3.1453 9.1314-8.1048 11.424-4.9595 2.2929-11.004 2.151-15.804-0.37077-2.0446 5.7032-7.7993 9.8996-14.778 10.776-6.9787 0.87654-13.93-1.7239-17.851-6.6778-4.8065 2.4418-10.574 3.1452-16.001 1.9515-5.4272-1.1937-10.057-4.1839-12.845-8.2961-4.9116 0.48422-9.6603-1.6596-11.89-5.3676-2.2292-3.708-1.4644-8.1907 1.9151-11.223-4.3813-2.1725-6.6168-6.4834-5.541-10.685 1.0758-4.2014 5.2193-7.3412 10.27-7.7822z" stroke="#000" stroke-linecap="butt"/>
  <path stroke-linejoin="round" d="m636.55 122.91c2.0675 1.0252 4.456 1.4903 6.8447 1.3327m3.1287 15.259c1.0272-0.10127 2.0341-0.31573 2.9947-0.63785m25.85 6.9821c-0.72247-0.9128-1.3274-1.8882-1.8044-2.9096m34.435-1.1889c0.37274-1.0398 0.61426-2.1099 0.72052-3.1926m23.188-7.8605c0.048279-5.0698-3.3696-9.7118-8.7857-11.932m20.713-12.721c-0.87714 1.7264-2.2161 3.2578-3.912 4.4742m-5.5453-21.002c0.14941 0.69715 0.21857 1.4048 0.20648 2.1131m-23.134-7.2885c-0.81934 0.81226-1.4944 1.7199-2.0041 2.6948m-17.929-1.1046c-0.43665 0.73776-0.7627 1.5184-0.9707 2.3241m-21.865 0.6357c1.2748 0.62904 2.4543 1.3862 3.5124 2.2547m-30.817 13.076c0.12976 0.80312 0.33472 1.5964 0.61298 2.3722" stroke="#000" stroke-linecap="butt"/>
  <path d="m671.98 111.43v-9.3125h3.2031q1.0938 0 1.6562 0.14062 0.8125 0.1875 1.375 0.67188 0.73438 0.60938 1.0938 1.5781 0.375 0.96875 0.375 2.2188 0 1.0625-0.25 1.8906-0.25 0.8125-0.64062 1.3438-0.39062 0.53125-0.85938 0.84375-0.45312 0.3125-1.1094 0.46875-0.64062 0.15625-1.4844 0.15625h-3.3594zm1.2344-1.0938h1.9844q0.92188 0 1.4375-0.17188 0.53125-0.17188 0.84375-0.48438 0.4375-0.4375 0.67188-1.1719 0.25-0.75 0.25-1.7969 0-1.4688-0.48438-2.25-0.46875-0.78125-1.1562-1.0469-0.5-0.1875-1.5938-0.1875h-1.9531v7.1094zm12.641 0.26562q-0.625 0.53125-1.2188 0.76562-0.57812 0.21875-1.25 0.21875-1.125 0-1.7188-0.54688-0.59375-0.54688-0.59375-1.3906 0-0.48438 0.21875-0.89062 0.23438-0.42188 0.59375-0.67188 0.375-0.25 0.82812-0.375 0.32812-0.078125 1.0156-0.17188 1.375-0.15625 2.0312-0.39062 0.015625-0.23438 0.015625-0.29688 0-0.70312-0.32812-0.98438-0.4375-0.39062-1.2969-0.39062-0.8125 0-1.2031 0.28125-0.375 0.28125-0.5625 1l-1.1094-0.14062q0.14062-0.71875 0.48438-1.1562 0.35938-0.45312 1.0156-0.6875 0.67188-0.23438 1.5312-0.23438 0.875 0 1.4062 0.20312 0.54688 0.20312 0.79688 0.51562 0.25 0.29688 0.35938 0.76562 0.046875 0.29688 0.046875 1.0625v1.5156q0 1.5938 0.078125 2.0156 0.078125 0.42188 0.28125 0.8125h-1.1875q-0.17188-0.35938-0.23438-0.82812zm-0.09375-2.5625q-0.625 0.26562-1.8594 0.4375-0.70312 0.10938-1 0.23438t-0.45312 0.375q-0.15625 0.23438-0.15625 0.53125 0 0.45312 0.34375 0.76562 0.34375 0.29688 1.0156 0.29688 0.65625 0 1.1719-0.28125 0.51562-0.29688 0.76562-0.79688 0.17188-0.375 0.17188-1.1406v-0.42188zm5.6156 2.375l0.15625 1q-0.48438 0.10938-0.85938 0.10938-0.625 0-0.96875-0.20312t-0.48438-0.51562q-0.14062-0.32812-0.14062-1.3438v-3.8906h-0.82812v-0.875h0.82812v-1.6719l1.1406-0.6875v2.3594h1.1562v0.875h-1.1562v3.9531q0 0.48438 0.0625 0.625t0.1875 0.21875q0.14062 0.078125 0.39062 0.078125 0.20312 0 0.51562-0.03125zm5.5936 0.1875q-0.625 0.53125-1.2188 0.76562-0.57812 0.21875-1.25 0.21875-1.125 0-1.7188-0.54688-0.59375-0.54688-0.59375-1.3906 0-0.48438 0.21875-0.89062 0.23438-0.42188 0.59375-0.67188 0.375-0.25 0.82812-0.375 0.32812-0.078125 1.0156-0.17188 1.375-0.15625 2.0312-0.39062 0.015625-0.23438 0.015625-0.29688 0-0.70312-0.32812-0.98438-0.4375-0.39062-1.2969-0.39062-0.8125 0-1.2031 0.28125-0.375 0.28125-0.5625 1l-1.1094-0.14062q0.14062-0.71875 0.48438-1.1562 0.35938-0.45312 1.0156-0.6875 0.67188-0.23438 1.5312-0.23438 0.875 0 1.4062 0.20312 0.54688 0.20312 0.79688 0.51562 0.25 0.29688 0.35938 0.76562 0.046875 0.29688 0.046875 1.0625v1.5156q0 1.5938 0.078125 2.0156 0.078125 0.42188 0.28125 0.8125h-1.1875q-0.17188-0.35938-0.23438-0.82812zm-0.09375-2.5625q-0.625 0.26562-1.8594 0.4375-0.70312 0.10938-1 0.23438t-0.45312 0.375q-0.15625 0.23438-0.15625 0.53125 0 0.45312 0.34375 0.76562 0.34375 0.29688 1.0156 0.29688 0.65625 0 1.1719-0.28125 0.51562-0.29688 0.76562-0.79688 0.17188-0.375 0.17188-1.1406v-0.42188z" fill="#000"/>
  <path d="m658.22 124.45l1.1719-0.10938q0.078125 0.70312 0.375 1.1562 0.3125 0.4375 0.9375 0.71875 0.64062 0.26562 1.4375 0.26562 0.70312 0 1.2344-0.20312 0.54688-0.20312 0.8125-0.5625 0.26562-0.375 0.26562-0.8125t-0.26562-0.76562q-0.25-0.32812-0.82812-0.54688-0.375-0.14062-1.6562-0.45312t-1.7969-0.57812q-0.67188-0.34375-1-0.85938-0.32812-0.53125-0.32812-1.1719 0-0.70312 0.39062-1.3125 0.40625-0.60938 1.1719-0.92188 0.78125-0.32812 1.7188-0.32812 1.0312 0 1.8125 0.34375 0.79688 0.32812 1.2188 0.98438 0.4375 0.64062 0.46875 1.4531l-1.1875 0.09375q-0.09375-0.89062-0.64062-1.3281-0.54688-0.45312-1.625-0.45312-1.1094 0-1.625 0.40625-0.51562 0.40625-0.51562 0.98438 0 0.5 0.35938 0.82812t1.8594 0.67188q1.5 0.32812 2.0625 0.57812 0.8125 0.375 1.1875 0.95312 0.39062 0.57812 0.39062 1.3281 0 0.73438-0.42188 1.3906-0.42188 0.65625-1.2188 1.0312-0.79688 0.35938-1.7969 0.35938-1.2656 0-2.125-0.35938-0.84375-0.375-1.3281-1.1094-0.48438-0.75-0.51562-1.6719zm8.7491-0.39062q0-1.875 1.0312-2.7656 0.875-0.75 2.125-0.75 1.3906 0 2.2656 0.90625 0.89062 0.90625 0.89062 2.5156 0 1.2969-0.39062 2.0469t-1.1406 1.1719q-0.75 0.40625-1.625 0.40625-1.4219 0-2.2969-0.90625-0.85938-0.90625-0.85938-2.625zm1.1719 0q0 1.2969 0.5625 1.9531 0.5625 0.64062 1.4219 0.64062 0.84375 0 1.4062-0.64062 0.57812-0.65625 0.57812-1.9844 0-1.25-0.57812-1.8906-0.5625-0.65625-1.4062-0.65625-0.85938 0-1.4219 0.64062-0.5625 0.64062-0.5625 1.9375zm11.084 3.375v-0.98438q-0.79688 1.1406-2.1406 1.1406-0.59375 0-1.125-0.23438-0.51562-0.23438-0.76562-0.57812-0.25-0.34375-0.34375-0.84375-0.078125-0.32812-0.078125-1.0625v-4.1719h1.1406v3.7344q0 0.89062 0.078125 1.2031 0.10938 0.45312 0.45312 0.71875 0.34375 0.25 0.85938 0.25 0.51562 0 0.96875-0.26562 0.45312-0.26562 0.64062-0.71875 0.1875-0.45312 0.1875-1.3125v-3.6094h1.1406v6.7344h-1.0156zm2.975 0v-6.7344h1.0312v1.0156q0.39062-0.71875 0.71875-0.9375 0.34375-0.23438 0.73438-0.23438 0.57812 0 1.1719 0.35938l-0.39062 1.0625q-0.42188-0.25-0.82812-0.25-0.375 0-0.6875 0.23438-0.29688 0.21875-0.42188 0.625-0.1875 0.60938-0.1875 1.3281v3.5312h-1.1406zm8.8446-2.4688l1.125 0.14062q-0.17188 1.1719-0.9375 1.8281-0.76562 0.65625-1.8594 0.65625-1.3906 0-2.2344-0.90625-0.82812-0.90625-0.82812-2.5938 0-1.0938 0.35938-1.9062 0.35938-0.82812 1.0938-1.2344 0.73438-0.40625 1.6094-0.40625 1.0938 0 1.7969 0.5625 0.70312 0.54688 0.89062 1.5625l-1.1094 0.17188q-0.15625-0.67188-0.5625-1.0156-0.39062-0.34375-0.96875-0.34375-0.85938 0-1.4062 0.625-0.53125 0.60938-0.53125 1.9531 0 1.3594 0.51562 1.9844 0.51562 0.60938 1.3594 0.60938 0.67188 0 1.125-0.40625 0.45312-0.42188 0.5625-1.2812zm6.8828 0.29688l1.1875 0.14062q-0.28125 1.0469-1.0469 1.625-0.75 0.5625-1.9219 0.5625-1.4844 0-2.3594-0.90625-0.85938-0.92188-0.85938-2.5625 0-1.7031 0.875-2.6406 0.89062-0.9375 2.2812-0.9375 1.3594 0 2.2031 0.92188 0.85938 0.92188 0.85938 2.5781 0 0.10938 0 0.3125h-5.0312q0.0625 1.1094 0.625 1.7031 0.5625 0.59375 1.4062 0.59375 0.64062 0 1.0781-0.32812 0.45312-0.34375 0.70312-1.0625zm-3.75-1.8438h3.7656q-0.078125-0.85938-0.4375-1.2812-0.54688-0.65625-1.4062-0.65625-0.79688 0-1.3281 0.53125-0.53125 0.51562-0.59375 1.4062zm9.3811 4.0156l3.5781-9.3125h1.3125l3.8125 9.3125h-1.4062l-1.0781-2.8125h-3.8906l-1.0312 2.8125h-1.2969zm2.6875-3.8281h3.1562l-0.98438-2.5781q-0.4375-1.1719-0.65625-1.9219-0.17188 0.89062-0.5 1.7812l-1.0156 2.7188z" fill="#000"/>
  <path d="m27.546 69.971h73.953v39.874h-73.953z" fill="#fff"/>
  <path stroke-linejoin="round" d="m27.546 69.971h73.953v39.874h-73.953z" stroke="#000" stroke-linecap="butt"/>
  <path d="m37.499 94.708v-9.3125h3.4844q1.0781 0 1.7188 0.29688 0.64062 0.28125 1 0.875 0.375 0.57812 0.375 1.2188 0 0.59375-0.32812 1.125-0.32812 0.51562-0.96875 0.84375 0.84375 0.25 1.2969 0.84375 0.45312 0.59375 0.45312 1.4062 0 0.65625-0.28125 1.2188-0.28125 0.5625-0.6875 0.875-0.40625 0.29688-1.0156 0.45312-0.60938 0.15625-1.5 0.15625h-3.5469zm1.2344-5.3906h2.0156q0.8125 0 1.1719-0.10938 0.46875-0.14062 0.70312-0.46875 0.23438-0.32812 0.23438-0.8125 0-0.46875-0.21875-0.8125-0.21875-0.35938-0.64062-0.48438-0.40625-0.125-1.4062-0.125h-1.8594v2.8125zm0 4.2969h2.3125q0.59375 0 0.84375-0.046875 0.42188-0.078125 0.70312-0.25 0.28125-0.1875 0.46875-0.51562 0.1875-0.34375 0.1875-0.79688 0-0.51562-0.26562-0.89062-0.26562-0.39062-0.75-0.54688-0.46875-0.15625-1.3594-0.15625h-2.1406v3.2031zm7.546 1.0938v-6.7344h1.0312v1.0156q0.39062-0.71875 0.71875-0.9375 0.34375-0.23438 0.73438-0.23438 0.57812 0 1.1719 0.35938l-0.39062 1.0625q-0.42188-0.25-0.82812-0.25-0.375 0-0.6875 0.23438-0.29688 0.21875-0.42188 0.625-0.1875 0.60938-0.1875 1.3281v3.5312h-1.1406zm4.0321-3.375q0-1.875 1.0312-2.7656 0.875-0.75 2.125-0.75 1.3906 0 2.2656 0.90625 0.89062 0.90625 0.89062 2.5156 0 1.2969-0.39062 2.0469t-1.1406 1.1719q-0.75 0.40625-1.625 0.40625-1.4219 0-2.2969-0.90625-0.85938-0.90625-0.85938-2.625zm1.1719 0q0 1.2969 0.5625 1.9531 0.5625 0.64062 1.4219 0.64062 0.84375 0 1.4062-0.64062 0.57812-0.65625 0.57812-1.9844 0-1.25-0.57812-1.8906-0.5625-0.65625-1.4062-0.65625-0.85938 0-1.4219 0.64062-0.5625 0.64062-0.5625 1.9375zm7.8969 3.375l-2.0625-6.7344h1.1875l1.0781 3.8906 0.39062 1.4375q0.03125-0.10938 0.35938-1.3906l1.0625-3.9375h1.1719l1.0156 3.9062 0.34375 1.2812 0.375-1.2969 1.1562-3.8906h1.1094l-2.1094 6.7344h-1.1719l-1.0781-4.0312-0.26562-1.1562-1.3594 5.1875h-1.2031zm7.9376-2.0156l1.125-0.17188q0.09375 0.67188 0.53125 1.0469 0.4375 0.35938 1.2188 0.35938 0.78125 0 1.1562-0.3125 0.39062-0.32812 0.39062-0.76562 0-0.39062-0.34375-0.60938-0.23438-0.15625-1.1719-0.39062-1.25-0.3125-1.7344-0.54688-0.48438-0.23438-0.73438-0.64062-0.25-0.40625-0.25-0.90625 0-0.45312 0.20312-0.82812 0.20312-0.39062 0.5625-0.64062 0.26562-0.20312 0.71875-0.32812 0.46875-0.14062 1-0.14062 0.78125 0 1.375 0.23438 0.60938 0.21875 0.89062 0.60938 0.29688 0.39062 0.40625 1.0469l-1.125 0.15625q-0.078125-0.53125-0.4375-0.8125-0.35938-0.29688-1.0312-0.29688-0.78125 0-1.125 0.26562-0.34375 0.25-0.34375 0.60938 0 0.21875 0.14062 0.39062 0.14062 0.1875 0.4375 0.3125 0.17188 0.0625 1.0156 0.28125 1.2188 0.32812 1.6875 0.53125 0.48438 0.20312 0.75 0.60938 0.28125 0.39062 0.28125 0.96875 0 0.57812-0.34375 1.0781-0.32812 0.5-0.95312 0.78125t-1.4219 0.28125q-1.3125 0-2-0.54688t-0.875-1.625zm11.727-0.15625l1.1875 0.14062q-0.28125 1.0469-1.0469 1.625-0.75 0.5625-1.9219 0.5625-1.4844 0-2.3594-0.90625-0.85938-0.92188-0.85938-2.5625 0-1.7031 0.875-2.6406 0.89062-0.9375 2.2812-0.9375 1.3594 0 2.2031 0.92188 0.85938 0.92188 0.85938 2.5781 0 0.10938 0 0.3125h-5.0312q0.0625 1.1094 0.625 1.7031 0.5625 0.59375 1.4062 0.59375 0.64062 0 1.0781-0.32812 0.45312-0.34375 0.70312-1.0625zm-3.75-1.8438h3.7656q-0.078125-0.85938-0.4375-1.2812-0.54688-0.65625-1.4062-0.65625-0.79688 0-1.3281 0.53125-0.53125 0.51562-0.59375 1.4062zm6.5375 4.0156v-6.7344h1.0312v1.0156q0.39062-0.71875 0.71875-0.9375 0.34375-0.23438 0.73438-0.23438 0.57812 0 1.1719 0.35938l-0.39062 1.0625q-0.42188-0.25-0.82812-0.25-0.375 0-0.6875 0.23438-0.29688 0.21875-0.42188 0.625-0.1875 0.60938-0.1875 1.3281v3.5312h-1.1406zm4.0009-2.0156l1.125-0.17188q0.09375 0.67188 0.53125 1.0469 0.4375 0.35938 1.2188 0.35938 0.78125 0 1.1562-0.3125 0.39062-0.32812 0.39062-0.76562 0-0.39062-0.34375-0.60938-0.23438-0.15625-1.1719-0.39062-1.25-0.3125-1.7344-0.54688-0.48438-0.23438-0.73438-0.64062-0.25-0.40625-0.25-0.90625 0-0.45312 0.20312-0.82812 0.20312-0.39062 0.5625-0.64062 0.26562-0.20312 0.71875-0.32812 0.46875-0.14062 1-0.14062 0.78125 0 1.375 0.23438 0.60938 0.21875 0.89062 0.60938 0.29688 0.39062 0.40625 1.0469l-1.125 0.15625q-0.078125-0.53125-0.4375-0.8125-0.35938-0.29688-1.0312-0.29688-0.78125 0-1.125 0.26562-0.34375 0.25-0.34375 0.60938 0 0.21875 0.14062 0.39062 0.14062 0.1875 0.4375 0.3125 0.17188 0.0625 1.0156 0.28125 1.2188 0.32812 1.6875 0.53125 0.48438 0.20312 0.75 0.60938 0.28125 0.39062 0.28125 0.96875 0 0.57812-0.34375 1.0781-0.32812 0.5-0.95312 0.78125t-1.4219 0.28125q-1.3125 0-2-0.54688t-0.875-1.625z" fill="#000"/>
  <path d="m27.546 140.19h73.953v39.874h-73.953z" fill="#fff"/>
  <path stroke-linejoin="round" d="m27.546 140.19h73.953v39.874h-73.953z" stroke="#000" stroke-linecap="butt"/>
  <path d="m37.499 164.92v-9.3125h3.4844q1.0781 0 1.7188 0.29688 0.64062 0.28125 1 0.875 0.375 0.57812 0.375 1.2188 0 0.59375-0.32812 1.125-0.32812 0.51562-0.96875 0.84375 0.84375 0.25 1.2969 0.84375 0.45312 0.59375 0.45312 1.4062 0 0.65625-0.28125 1.2188-0.28125 0.5625-0.6875 0.875-0.40625 0.29688-1.0156 0.45312-0.60938 0.15625-1.5 0.15625h-3.5469zm1.2344-5.3906h2.0156q0.8125 0 1.1719-0.10938 0.46875-0.14062 0.70312-0.46875 0.23438-0.32812 0.23438-0.8125 0-0.46875-0.21875-0.8125-0.21875-0.35938-0.64062-0.48438-0.40625-0.125-1.4062-0.125h-1.8594v2.8125zm0 4.2969h2.3125q0.59375 0 0.84375-0.046875 0.42188-0.078125 0.70312-0.25 0.28125-0.1875 0.46875-0.51562 0.1875-0.34375 0.1875-0.79688 0-0.51562-0.26562-0.89062-0.26562-0.39062-0.75-0.54688-0.46875-0.15625-1.3594-0.15625h-2.1406v3.2031zm7.546 1.0938v-6.7344h1.0312v1.0156q0.39062-0.71875 0.71875-0.9375 0.34375-0.23438 0.73438-0.23438 0.57812 0 1.1719 0.35938l-0.39062 1.0625q-0.42188-0.25-0.82812-0.25-0.375 0-0.6875 0.23438-0.29688 0.21875-0.42188 0.625-0.1875 0.60938-0.1875 1.3281v3.5312h-1.1406zm4.0321-3.375q0-1.875 1.0312-2.7656 0.875-0.75 2.125-0.75 1.3906 0 2.2656 0.90625 0.89062 0.90625 0.89062 2.5156 0 1.2969-0.39062 2.0469t-1.1406 1.1719q-0.75 0.40625-1.625 0.40625-1.4219 0-2.2969-0.90625-0.85938-0.90625-0.85938-2.625zm1.1719 0q0 1.2969 0.5625 1.9531 0.5625 0.64062 1.4219 0.64062 0.84375 0 1.4062-0.64062 0.57812-0.65625 0.57812-1.9844 0-1.25-0.57812-1.8906-0.5625-0.65625-1.4062-0.65625-0.85938 0-1.4219 0.64062-0.5625 0.64062-0.5625 1.9375zm7.8969 3.375l-2.0625-6.7344h1.1875l1.0781 3.8906 0.39062 1.4375q0.03125-0.10938 0.35938-1.3906l1.0625-3.9375h1.1719l1.0156 3.9062 0.34375 1.2812 0.375-1.2969 1.1562-3.8906h1.1094l-2.1094 6.7344h-1.1719l-1.0781-4.0312-0.26562-1.1562-1.3594 5.1875h-1.2031zm7.9376-2.0156l1.125-0.17188q0.09375 0.67188 0.53125 1.0469 0.4375 0.35938 1.2188 0.35938 0.78125 0 1.1562-0.3125 0.39062-0.32812 0.39062-0.76562 0-0.39062-0.34375-0.60938-0.23438-0.15625-1.1719-0.39062-1.25-0.3125-1.7344-0.54688-0.48438-0.23438-0.73438-0.64062-0.25-0.40625-0.25-0.90625 0-0.45312 0.20312-0.82812 0.20312-0.39062 0.5625-0.64062 0.26562-0.20312 0.71875-0.32812 0.46875-0.14062 1-0.14062 0.78125 0 1.375 0.23438 0.60938 0.21875 0.89062 0.60938 0.29688 0.39062 0.40625 1.0469l-1.125 0.15625q-0.078125-0.53125-0.4375-0.8125-0.35938-0.29688-1.0312-0.29688-0.78125 0-1.125 0.26562-0.34375 0.25-0.34375 0.60938 0 0.21875 0.14062 0.39062 0.14062 0.1875 0.4375 0.3125 0.17188 0.0625 1.0156 0.28125 1.2188 0.32812 1.6875 0.53125 0.48438 0.20312 0.75 0.60938 0.28125 0.39062 0.28125 0.96875 0 0.57812-0.34375 1.0781-0.32812 0.5-0.95312 0.78125t-1.4219 0.28125q-1.3125 0-2-0.54688t-0.875-1.625zm11.727-0.15625l1.1875 0.14062q-0.28125 1.0469-1.0469 1.625-0.75 0.5625-1.9219 0.5625-1.4844 0-2.3594-0.90625-0.85938-0.92188-0.85938-2.5625 0-1.7031 0.875-2.6406 0.89062-0.9375 2.2812-0.9375 1.3594 0 2.2031 0.92188 0.85938 0.92188 0.85938 2.5781 0 0.10938 0 0.3125h-5.0312q0.0625 1.1094 0.625 1.7031 0.5625 0.59375 1.4062 0.59375 0.64062 0 1.0781-0.32812 0.45312-0.34375 0.70312-1.0625zm-3.75-1.8438h3.7656q-0.078125-0.85938-0.4375-1.2812-0.54688-0.65625-1.4062-0.65625-0.79688 0-1.3281 0.53125-0.53125 0.51562-0.59375 1.4062zm6.5375 4.0156v-6.7344h1.0312v1.0156q0.39062-0.71875 0.71875-0.9375 0.34375-0.23438 0.73438-0.23438 0.57812 0 1.1719 0.35938l-0.39062 1.0625q-0.42188-0.25-0.82812-0.25-0.375 0-0.6875 0.23438-0.29688 0.21875-0.42188 0.625-0.1875 0.60938-0.1875 1.3281v3.5312h-1.1406zm4.0009-2.0156l1.125-0.17188q0.09375 0.67188 0.53125 1.0469 0.4375 0.35938 1.2188 0.35938 0.78125 0 1.1562-0.3125 0.39062-0.32812 0.39062-0.76562 0-0.39062-0.34375-0.60938-0.23438-0.15625-1.1719-0.39062-1.25-0.3125-1.7344-0.54688-0.48438-0.23438-0.73438-0.64062-0.25-0.40625-0.25-0.90625 0-0.45312 0.20312-0.82812 0.20312-0.39062 0.5625-0.64062 0.26562-0.20312 0.71875-0.32812 0.46875-0.14062 1-0.14062 0.78125 0 1.375 0.23438 0.60938 0.21875 0.89062 0.60938 0.29688 0.39062 0.40625 1.0469l-1.125 0.15625q-0.078125-0.53125-0.4375-0.8125-0.35938-0.29688-1.0312-0.29688-0.78125 0-1.125 0.26562-0.34375 0.25-0.34375 0.60938 0 0.21875 0.14062 0.39062 0.14062 0.1875 0.4375 0.3125 0.17188 0.0625 1.0156 0.28125 1.2188 0.32812 1.6875 0.53125 0.48438 0.20312 0.75 0.60938 0.28125 0.39062 0.28125 0.96875 0 0.57812-0.34375 1.0781-0.32812 0.5-0.95312 0.78125t-1.4219 0.28125q-1.3125 0-2-0.54688t-0.875-1.625z" fill="#000"/>
  <path fill-opacity="0" d="m38.648 92.186h51.748v48h-51.748z" fill="#000"/>
  <path d="m50.555 131.91v-3.2031h3.2031v3.2031h-3.2031zm8.8906 0v-3.2031h3.2031v3.2031h-3.2031zm8.8906 0v-3.2031h3.2031v3.2031h-3.2031z" fill="#000"/>
  <path d="m19.121 295.41h98.803v39.874h-98.803z" fill="#fff"/>
  <path stroke-linejoin="round" d="m19.121 295.41h98.803v39.874h-98.803z" stroke="#000" stroke-linecap="butt"/>
  <path d="m11.121 287.41h98.803v39.874h-98.803z" fill="#fff"/>
  <path stroke-linejoin="round" d="m11.121 287.41h98.803v39.874h-98.803z" stroke="#000" stroke-linecap="butt"/>
  <path d="m21.119 304.14v-9.3125h1.8438l2.2031 6.5938q0.3125 0.92188 0.45312 1.375 0.15625-0.5 0.48438-1.4844l2.2344-6.4844h1.6562v9.3125h-1.1875v-7.7812l-2.7031 7.7812h-1.1094l-2.6875-7.9219v7.9219h-1.1875zm10.571-3.375q0-1.875 1.0312-2.7656 0.875-0.75 2.125-0.75 1.3906 0 2.2656 0.90625 0.89062 0.90625 0.89062 2.5156 0 1.2969-0.39062 2.0469t-1.1406 1.1719q-0.75 0.40625-1.625 0.40625-1.4219 0-2.2969-0.90625-0.85938-0.90625-0.85938-2.625zm1.1719 0q0 1.2969 0.5625 1.9531 0.5625 0.64062 1.4219 0.64062 0.84375 0 1.4062-0.64062 0.57812-0.65625 0.57812-1.9844 0-1.25-0.57812-1.8906-0.5625-0.65625-1.4062-0.65625-0.85938 0-1.4219 0.64062-0.5625 0.64062-0.5625 1.9375zm7.7094 3.375h-1.0625v-9.3125h1.1562v3.3281q0.71875-0.90625 1.8438-0.90625 0.625 0 1.1719 0.25 0.5625 0.25 0.92188 0.70312t0.5625 1.0938q0.20312 0.64062 0.20312 1.375 0 1.7344-0.85938 2.6875-0.85938 0.9375-2.0625 0.9375-1.1875 0-1.875-1v0.84375zm-0.015625-3.4219q0 1.2188 0.34375 1.75 0.53125 0.89062 1.4531 0.89062 0.75 0 1.2969-0.65625 0.54688-0.65625 0.54688-1.9375 0-1.3281-0.53125-1.9531-0.51562-0.625-1.2656-0.625-0.75 0-1.2969 0.65625-0.54688 0.64062-0.54688 1.875zm6.3812-4.5625v-1.3281h1.1406v1.3281h-1.1406zm0 7.9844v-6.7344h1.1406v6.7344h-1.1406zm2.9298 0v-9.3125h1.1406v9.3125h-1.1406zm7.6017-2.1719l1.1875 0.14062q-0.28125 1.0469-1.0469 1.625-0.75 0.5625-1.9219 0.5625-1.4844 0-2.3594-0.90625-0.85938-0.92188-0.85938-2.5625 0-1.7031 0.875-2.6406 0.89062-0.9375 2.2812-0.9375 1.3594 0 2.2031 0.92188 0.85938 0.92188 0.85938 2.5781 0 0.10938 0 0.3125h-5.0312q0.0625 1.1094 0.625 1.7031 0.5625 0.59375 1.4062 0.59375 0.64062 0 1.0781-0.32812 0.45312-0.34375 0.70312-1.0625zm-3.75-1.8438h3.7656q-0.078125-0.85938-0.4375-1.2812-0.54688-0.65625-1.4062-0.65625-0.79688 0-1.3281 0.53125-0.53125 0.51562-0.59375 1.4062zm10.381 4.0156v-9.3125h1.2656l4.8906 7.3125v-7.3125h1.1875v9.3125h-1.2656l-4.8906-7.3125v7.3125h-1.1875zm13.891-0.82812q-0.625 0.53125-1.2188 0.76562-0.57812 0.21875-1.25 0.21875-1.125 0-1.7188-0.54688-0.59375-0.54688-0.59375-1.3906 0-0.48438 0.21875-0.89062 0.23438-0.42188 0.59375-0.67188 0.375-0.25 0.82812-0.375 0.32812-0.078125 1.0156-0.17188 1.375-0.15625 2.0312-0.39062 0.015625-0.23438 0.015625-0.29688 0-0.70312-0.32812-0.98438-0.4375-0.39062-1.2969-0.39062-0.8125 0-1.2031 0.28125-0.375 0.28125-0.5625 1l-1.1094-0.14062q0.14062-0.71875 0.48438-1.1562 0.35938-0.45312 1.0156-0.6875 0.67188-0.23438 1.5312-0.23438 0.875 0 1.4062 0.20312 0.54688 0.20312 0.79688 0.51562 0.25 0.29688 0.35938 0.76562 0.046875 0.29688 0.046875 1.0625v1.5156q0 1.5938 0.078125 2.0156 0.078125 0.42188 0.28125 0.8125h-1.1875q-0.17188-0.35938-0.23438-0.82812zm-0.09375-2.5625q-0.625 0.26562-1.8594 0.4375-0.70312 0.10938-1 0.23438t-0.45312 0.375q-0.15625 0.23438-0.15625 0.53125 0 0.45312 0.34375 0.76562 0.34375 0.29688 1.0156 0.29688 0.65625 0 1.1719-0.28125 0.51562-0.29688 0.76562-0.79688 0.17188-0.375 0.17188-1.1406v-0.42188zm5.6156 2.375l0.15625 1q-0.48438 0.10938-0.85938 0.10938-0.625 0-0.96875-0.20312t-0.48438-0.51562q-0.14062-0.32812-0.14062-1.3438v-3.8906h-0.82812v-0.875h0.82812v-1.6719l1.1406-0.6875v2.3594h1.1562v0.875h-1.1562v3.9531q0 0.48438 0.0625 0.625t0.1875 0.21875q0.14062 0.078125 0.39062 0.078125 0.20312 0 0.51562-0.03125zm1.203-6.9688v-1.3281h1.1406v1.3281h-1.1406zm0 7.9844v-6.7344h1.1406v6.7344h-1.1406zm4.8361 0l-2.5625-6.7344h1.2031l1.4375 4.0312q0.23438 0.65625 0.4375 1.3594 0.15625-0.53125 0.42188-1.2812l1.5-4.1094h1.1719l-2.5469 6.7344h-1.0625zm9.3984-2.1719l1.1875 0.14062q-0.28125 1.0469-1.0469 1.625-0.75 0.5625-1.9219 0.5625-1.4844 0-2.3594-0.90625-0.85938-0.92188-0.85938-2.5625 0-1.7031 0.875-2.6406 0.89062-0.9375 2.2812-0.9375 1.3594 0 2.2031 0.92188 0.85938 0.92188 0.85938 2.5781 0 0.10938 0 0.3125h-5.0312q0.0625 1.1094 0.625 1.7031 0.5625 0.59375 1.4062 0.59375 0.64062 0 1.0781-0.32812 0.45312-0.34375 0.70312-1.0625zm-3.75-1.8438h3.7656q-0.078125-0.85938-0.4375-1.2812-0.54688-0.65625-1.4062-0.65625-0.79688 0-1.3281 0.53125-0.53125 0.51562-0.59375 1.4062z" fill="#000"/>
  <path d="m48.649 320.14l3.5781-9.3125h1.3125l3.8125 9.3125h-1.4062l-1.0781-2.8125h-3.8906l-1.0312 2.8125h-1.2969zm2.6875-3.8281h3.1562l-0.98438-2.5781q-0.4375-1.1719-0.65625-1.9219-0.17188 0.89062-0.5 1.7812l-1.0156 2.7188zm7.0773 6.4062v-9.3125h1.0312v0.875q0.375-0.51562 0.82812-0.76562 0.46875-0.26562 1.1406-0.26562 0.85938 0 1.5156 0.45312 0.65625 0.4375 0.98438 1.25 0.34375 0.79688 0.34375 1.7656 0 1.0312-0.375 1.8594-0.35938 0.82812-1.0781 1.2812-0.70312 0.4375-1.4844 0.4375-0.5625 0-1.0156-0.23438-0.45312-0.25-0.75-0.625v3.2812h-1.1406zm1.0312-5.9062q0 1.2969 0.53125 1.9219t1.2656 0.625q0.76562 0 1.3125-0.64062 0.54688-0.65625 0.54688-2 0-1.2969-0.53125-1.9375-0.53125-0.64062-1.2656-0.64062-0.73438 0-1.2969 0.6875-0.5625 0.67188-0.5625 1.9844zm6.3812 5.9062v-9.3125h1.0312v0.875q0.375-0.51562 0.82812-0.76562 0.46875-0.26562 1.1406-0.26562 0.85938 0 1.5156 0.45312 0.65625 0.4375 0.98438 1.25 0.34375 0.79688 0.34375 1.7656 0 1.0312-0.375 1.8594-0.35938 0.82812-1.0781 1.2812-0.70312 0.4375-1.4844 0.4375-0.5625 0-1.0156-0.23438-0.45312-0.25-0.75-0.625v3.2812h-1.1406zm1.0312-5.9062q0 1.2969 0.53125 1.9219t1.2656 0.625q0.76562 0 1.3125-0.64062 0.54688-0.65625 0.54688-2 0-1.2969-0.53125-1.9375-0.53125-0.64062-1.2656-0.64062-0.73438 0-1.2969 0.6875-0.5625 0.67188-0.5625 1.9844z" fill="#000"/>
  <path d="m468.96 59.556h92.472v63.559h-92.472z" fill="#cfe2f3"/>
  <path stroke-linejoin="round" d="m468.96 59.556h92.472v63.559h-92.472z" stroke="#000" stroke-linecap="butt"/>
  <path d="m482.58 80.136l3.5781-9.3125h1.3125l3.8125 9.3125h-1.4062l-1.0781-2.8125h-3.8906l-1.0312 2.8125h-1.2969zm2.6875-3.8281h3.1562l-0.98438-2.5781q-0.4375-1.1719-0.65625-1.9219-0.17188 0.89062-0.5 1.7812l-1.0156 2.7188zm7.0773 6.4062v-9.3125h1.0312v0.875q0.375-0.51562 0.82812-0.76562 0.46875-0.26562 1.1406-0.26562 0.85938 0 1.5156 0.45312 0.65625 0.4375 0.98438 1.25 0.34375 0.79688 0.34375 1.7656 0 1.0312-0.375 1.8594-0.35938 0.82812-1.0781 1.2812-0.70312 0.4375-1.4844 0.4375-0.5625 0-1.0156-0.23438-0.45312-0.25-0.75-0.625v3.2812h-1.1406zm1.0312-5.9062q0 1.2969 0.53125 1.9219t1.2656 0.625q0.76562 0 1.3125-0.64062 0.54688-0.65625 0.54688-2 0-1.2969-0.53125-1.9375-0.53125-0.64062-1.2656-0.64062-0.73438 0-1.2969 0.6875-0.5625 0.67188-0.5625 1.9844zm6.3812 5.9062v-9.3125h1.0312v0.875q0.375-0.51562 0.82812-0.76562 0.46875-0.26562 1.1406-0.26562 0.85938 0 1.5156 0.45312 0.65625 0.4375 0.98438 1.25 0.34375 0.79688 0.34375 1.7656 0 1.0312-0.375 1.8594-0.35938 0.82812-1.0781 1.2812-0.70312 0.4375-1.4844 0.4375-0.5625 0-1.0156-0.23438-0.45312-0.25-0.75-0.625v3.2812h-1.1406zm1.0312-5.9062q0 1.2969 0.53125 1.9219t1.2656 0.625q0.76562 0 1.3125-0.64062 0.54688-0.65625 0.54688-2 0-1.2969-0.53125-1.9375-0.53125-0.64062-1.2656-0.64062-0.73438 0-1.2969 0.6875-0.5625 0.67188-0.5625 1.9844zm6.35 3.3281v-9.3125h1.1406v9.3125h-1.1406zm2.9923-7.9844v-1.3281h1.1406v1.3281h-1.1406zm0 7.9844v-6.7344h1.1406v6.7344h-1.1406zm7.3517-2.4688l1.125 0.14062q-0.17188 1.1719-0.9375 1.8281-0.76562 0.65625-1.8594 0.65625-1.3906 0-2.2344-0.90625-0.82812-0.90625-0.82812-2.5938 0-1.0938 0.35938-1.9062 0.35938-0.82812 1.0938-1.2344 0.73438-0.40625 1.6094-0.40625 1.0938 0 1.7969 0.5625 0.70312 0.54688 0.89062 1.5625l-1.1094 0.17188q-0.15625-0.67188-0.5625-1.0156-0.39062-0.34375-0.96875-0.34375-0.85938 0-1.4062 0.625-0.53125 0.60938-0.53125 1.9531 0 1.3594 0.51562 1.9844 0.51562 0.60938 1.3594 0.60938 0.67188 0 1.125-0.40625 0.45312-0.42188 0.5625-1.2812zm6.6641 1.6406q-0.625 0.53125-1.2188 0.76562-0.57812 0.21875-1.25 0.21875-1.125 0-1.7188-0.54688-0.59375-0.54688-0.59375-1.3906 0-0.48438 0.21875-0.89062 0.23438-0.42188 0.59375-0.67188 0.375-0.25 0.82812-0.375 0.32812-0.078125 1.0156-0.17188 1.375-0.15625 2.0312-0.39062 0.015625-0.23438 0.015625-0.29688 0-0.70312-0.32812-0.98438-0.4375-0.39062-1.2969-0.39062-0.8125 0-1.2031 0.28125-0.375 0.28125-0.5625 1l-1.1094-0.14062q0.14062-0.71875 0.48438-1.1562 0.35938-0.45312 1.0156-0.6875 0.67188-0.23438 1.5312-0.23438 0.875 0 1.4062 0.20312 0.54688 0.20312 0.79688 0.51562 0.25 0.29688 0.35938 0.76562 0.046875 0.29688 0.046875 1.0625v1.5156q0 1.5938 0.078125 2.0156 0.078125 0.42188 0.28125 0.8125h-1.1875q-0.17188-0.35938-0.23438-0.82812zm-0.09375-2.5625q-0.625 0.26562-1.8594 0.4375-0.70312 0.10938-1 0.23438t-0.45312 0.375q-0.15625 0.23438-0.15625 0.53125 0 0.45312 0.34375 0.76562 0.34375 0.29688 1.0156 0.29688 0.65625 0 1.1719-0.28125 0.51562-0.29688 0.76562-0.79688 0.17188-0.375 0.17188-1.1406v-0.42188zm5.6156 2.375l0.15625 1q-0.48438 0.10938-0.85938 0.10938-0.625 0-0.96875-0.20312t-0.48438-0.51562q-0.14062-0.32812-0.14062-1.3438v-3.8906h-0.82812v-0.875h0.82812v-1.6719l1.1406-0.6875v2.3594h1.1562v0.875h-1.1562v3.9531q0 0.48438 0.0625 0.625t0.1875 0.21875q0.14062 0.078125 0.39062 0.078125 0.20312 0 0.51562-0.03125zm1.203-6.9688v-1.3281h1.1406v1.3281h-1.1406zm0 7.9844v-6.7344h1.1406v6.7344h-1.1406zm2.5392-3.375q0-1.875 1.0312-2.7656 0.875-0.75 2.125-0.75 1.3906 0 2.2656 0.90625 0.89062 0.90625 0.89062 2.5156 0 1.2969-0.39062 2.0469t-1.1406 1.1719q-0.75 0.40625-1.625 0.40625-1.4219 0-2.2969-0.90625-0.85938-0.90625-0.85938-2.625zm1.1719 0q0 1.2969 0.5625 1.9531 0.5625 0.64062 1.4219 0.64062 0.84375 0 1.4062-0.64062 0.57812-0.65625 0.57812-1.9844 0-1.25-0.57812-1.8906-0.5625-0.65625-1.4062-0.65625-0.85938 0-1.4219 0.64062-0.5625 0.64062-0.5625 1.9375zm6.6625 3.375v-6.7344h1.0312v0.95312q0.73438-1.1094 2.1406-1.1094 0.60938 0 1.1094 0.21875 0.51562 0.21875 0.76562 0.57812 0.26562 0.34375 0.35938 0.84375 0.0625 0.3125 0.0625 1.1094v4.1406h-1.1406v-4.0938q0-0.70312-0.14062-1.0469-0.125-0.34375-0.46875-0.54688-0.32812-0.21875-0.78125-0.21875-0.73438 0-1.2656 0.46875-0.53125 0.45312-0.53125 1.75v3.6875h-1.1406z" fill="#000"/>
  <path d="m496.15 93.152l1.1719-0.10938q0.078125 0.70312 0.375 1.1562 0.3125 0.4375 0.9375 0.71875 0.64062 0.26562 1.4375 0.26562 0.70312 0 1.2344-0.20312 0.54688-0.20312 0.8125-0.5625 0.26562-0.375 0.26562-0.8125t-0.26562-0.76562q-0.25-0.32812-0.82812-0.54688-0.375-0.14062-1.6562-0.45312t-1.7969-0.57812q-0.67188-0.34375-1-0.85938-0.32812-0.53125-0.32812-1.1719 0-0.70312 0.39062-1.3125 0.40625-0.60938 1.1719-0.92188 0.78125-0.32812 1.7188-0.32812 1.0312 0 1.8125 0.34375 0.79688 0.32812 1.2188 0.98438 0.4375 0.64062 0.46875 1.4531l-1.1875 0.09375q-0.09375-0.89062-0.64062-1.3281-0.54688-0.45312-1.625-0.45312-1.1094 0-1.625 0.40625-0.51562 0.40625-0.51562 0.98438 0 0.5 0.35938 0.82812t1.8594 0.67188q1.5 0.32812 2.0625 0.57812 0.8125 0.375 1.1875 0.95312 0.39062 0.57812 0.39062 1.3281 0 0.73438-0.42188 1.3906-0.42188 0.65625-1.2188 1.0312-0.79688 0.35938-1.7969 0.35938-1.2656 0-2.125-0.35938-0.84375-0.375-1.3281-1.1094-0.48438-0.75-0.51562-1.6719zm13.78 0.8125l1.1875 0.14062q-0.28125 1.0469-1.0469 1.625-0.75 0.5625-1.9219 0.5625-1.4844 0-2.3594-0.90625-0.85938-0.92188-0.85938-2.5625 0-1.7031 0.875-2.6406 0.89062-0.9375 2.2812-0.9375 1.3594 0 2.2031 0.92188 0.85938 0.92188 0.85938 2.5781 0 0.10938 0 0.3125h-5.0312q0.0625 1.1094 0.625 1.7031 0.5625 0.59375 1.4062 0.59375 0.64062 0 1.0781-0.32812 0.45312-0.34375 0.70312-1.0625zm-3.75-1.8438h3.7656q-0.078125-0.85938-0.4375-1.2812-0.54688-0.65625-1.4062-0.65625-0.79688 0-1.3281 0.53125-0.53125 0.51562-0.59375 1.4062zm6.5375 4.0156v-6.7344h1.0312v1.0156q0.39062-0.71875 0.71875-0.9375 0.34375-0.23438 0.73438-0.23438 0.57812 0 1.1719 0.35938l-0.39062 1.0625q-0.42188-0.25-0.82812-0.25-0.375 0-0.6875 0.23438-0.29688 0.21875-0.42188 0.625-0.1875 0.60938-0.1875 1.3281v3.5312h-1.1406zm6.329 0l-2.5625-6.7344h1.2031l1.4375 4.0312q0.23438 0.65625 0.4375 1.3594 0.15625-0.53125 0.42188-1.2812l1.5-4.1094h1.1719l-2.5469 6.7344h-1.0625zm9.3984-2.1719l1.1875 0.14062q-0.28125 1.0469-1.0469 1.625-0.75 0.5625-1.9219 0.5625-1.4844 0-2.3594-0.90625-0.85938-0.92188-0.85938-2.5625 0-1.7031 0.875-2.6406 0.89062-0.9375 2.2812-0.9375 1.3594 0 2.2031 0.92188 0.85938 0.92188 0.85938 2.5781 0 0.10938 0 0.3125h-5.0312q0.0625 1.1094 0.625 1.7031 0.5625 0.59375 1.4062 0.59375 0.64062 0 1.0781-0.32812 0.45312-0.34375 0.70312-1.0625zm-3.75-1.8438h3.7656q-0.078125-0.85938-0.4375-1.2812-0.54688-0.65625-1.4062-0.65625-0.79688 0-1.3281 0.53125-0.53125 0.51562-0.59375 1.4062zm6.5375 4.0156v-6.7344h1.0312v1.0156q0.39062-0.71875 0.71875-0.9375 0.34375-0.23438 0.73438-0.23438 0.57812 0 1.1719 0.35938l-0.39062 1.0625q-0.42188-0.25-0.82812-0.25-0.375 0-0.6875 0.23438-0.29688 0.21875-0.42188 0.625-0.1875 0.60938-0.1875 1.3281v3.5312h-1.1406z" fill="#000"/>
  <path d="m486.77 114.87q-0.95312-1.1875-1.6094-2.7812-0.65625-1.6094-0.65625-3.3281 0-1.5 0.5-2.8906 0.5625-1.6094 1.7656-3.2031h0.8125q-0.76562 1.3281-1.0156 1.8906-0.39062 0.875-0.60938 1.8281-0.26562 1.1875-0.26562 2.3906 0 3.0469 1.8906 6.0938h-0.8125zm6.6415-3.5625q-0.625 0.53125-1.2188 0.76562-0.57812 0.21875-1.25 0.21875-1.125 0-1.7188-0.54688-0.59375-0.54688-0.59375-1.3906 0-0.48438 0.21875-0.89062 0.23438-0.42188 0.59375-0.67188 0.375-0.25 0.82812-0.375 0.32812-0.078125 1.0156-0.17188 1.375-0.15625 2.0312-0.39062 0.015625-0.23438 0.015625-0.29688 0-0.70312-0.32812-0.98438-0.4375-0.39062-1.2969-0.39062-0.8125 0-1.2031 0.28125-0.375 0.28125-0.5625 1l-1.1094-0.14062q0.14062-0.71875 0.48438-1.1562 0.35938-0.45312 1.0156-0.6875 0.67188-0.23438 1.5312-0.23438 0.875 0 1.4062 0.20312 0.54688 0.20312 0.79688 0.51562 0.25 0.29688 0.35938 0.76562 0.046875 0.29688 0.046875 1.0625v1.5156q0 1.5938 0.078125 2.0156 0.078125 0.42188 0.28125 0.8125h-1.1875q-0.17188-0.35938-0.23438-0.82812zm-0.09375-2.5625q-0.625 0.26562-1.8594 0.4375-0.70312 0.10938-1 0.23438t-0.45312 0.375q-0.15625 0.23438-0.15625 0.53125 0 0.45312 0.34375 0.76562 0.34375 0.29688 1.0156 0.29688 0.65625 0 1.1719-0.28125 0.51562-0.29688 0.76562-0.79688 0.17188-0.375 0.17188-1.1406v-0.42188zm3.4437 3.3906v-1.2969h1.2969v1.2969h-1.2969zm3.3748 0v-9.3125h1.1406v5.3125l2.7031-2.7344h1.4844l-2.5781 2.5 2.8438 4.2344h-1.4062l-2.2344-3.4531-0.8125 0.78125v2.6719h-1.1406zm6.9922 0v-1.2969h1.2969v1.2969h-1.2969zm7.7655-0.82812q-0.625 0.53125-1.2188 0.76562-0.57812 0.21875-1.25 0.21875-1.125 0-1.7187-0.54688-0.59375-0.54688-0.59375-1.3906 0-0.48438 0.21875-0.89062 0.23438-0.42188 0.59375-0.67188 0.375-0.25 0.82812-0.375 0.32809-0.078125 1.0156-0.17188 1.375-0.15625 2.0312-0.39062 0.015625-0.23438 0.015625-0.29688 0-0.70312-0.32812-0.98438-0.4375-0.39062-1.2969-0.39062-0.8125 0-1.2031 0.28125-0.375 0.28125-0.5625 1l-1.1094-0.14062q0.14062-0.71875 0.48438-1.1562 0.35938-0.45312 1.0156-0.6875 0.67184-0.23438 1.5312-0.23438 0.875 0 1.4062 0.20312 0.54688 0.20312 0.79688 0.51562 0.25 0.29688 0.35938 0.76562 0.046875 0.29688 0.046875 1.0625v1.5156q0 1.5938 0.078125 2.0156 0.078125 0.42188 0.28125 0.8125h-1.1875q-0.17188-0.35938-0.23438-0.82812zm-0.09375-2.5625q-0.625 0.26562-1.8594 0.4375-0.70312 0.10938-0.99997 0.23438-0.29688 0.125-0.45312 0.375-0.15625 0.23438-0.15625 0.53125 0 0.45312 0.34375 0.76562 0.34372 0.29688 1.0156 0.29688 0.65625 0 1.1719-0.28125 0.51562-0.29688 0.76562-0.79688 0.17188-0.375 0.17188-1.1406v-0.42188zm5.9436 3.3906l3.5781-9.3125h1.3125l3.8125 9.3125h-1.4062l-1.0781-2.8125h-3.8906l-1.0312 2.8125h-1.2969zm2.6875-3.8281h3.1562l-0.98438-2.5781q-0.4375-1.1719-0.65625-1.9219-0.17188 0.89062-0.5 1.7812l-1.0156 2.7188zm7.2179 3.8281v-9.3125h3.5156q0.92188 0 1.4062 0.09375 0.6875 0.10938 1.1562 0.4375 0.46875 0.3125 0.75 0.89062t0.28125 1.2812q0 1.1875-0.76562 2.0156-0.75 0.8125-2.7188 0.8125h-2.3906v3.7812h-1.2344zm1.2344-4.875h2.4062q1.1875 0 1.6875-0.4375 0.51562-0.45312 0.51562-1.2656 0-0.57812-0.29688-0.98438-0.29688-0.42188-0.78125-0.5625-0.3125-0.078125-1.1562-0.078125h-2.375v3.3281zm7.8741 4.875v-9.3125h1.2188v9.3125h-1.2188zm4.0936 2.7344h-0.82812q1.9062-3.0469 1.9062-6.0938 0-1.2031-0.28125-2.375-0.20312-0.95312-0.59375-1.8281-0.25-0.5625-1.0312-1.9062h0.82812q1.1875 1.5938 1.7656 3.2031 0.48438 1.3906 0.48438 2.8906 0 1.7188-0.65625 3.3281-0.65625 1.5938-1.5938 2.7812z" fill="#000"/>
  <path d="m468.96 223.22h92.472v63.559h-92.472z" fill="#cfe2f3"/>
  <path stroke-linejoin="round" d="m468.96 223.22h92.472v63.559h-92.472z" stroke="#000" stroke-linecap="butt"/>
  <path d="m482.58 243.8l3.5781-9.3125h1.3125l3.8125 9.3125h-1.4062l-1.0781-2.8125h-3.8906l-1.0312 2.8125h-1.2969zm2.6875-3.8281h3.1562l-0.98438-2.5781q-0.4375-1.1719-0.65625-1.9219-0.17188 0.89062-0.5 1.7812l-1.0156 2.7188zm7.0773 6.4062v-9.3125h1.0312v0.875q0.375-0.51562 0.82812-0.76562 0.46875-0.26562 1.1406-0.26562 0.85938 0 1.5156 0.45312 0.65625 0.4375 0.98438 1.25 0.34375 0.79688 0.34375 1.7656 0 1.0312-0.375 1.8594-0.35938 0.82812-1.0781 1.2812-0.70312 0.4375-1.4844 0.4375-0.5625 0-1.0156-0.23438-0.45312-0.25-0.75-0.625v3.2812h-1.1406zm1.0312-5.9062q0 1.2969 0.53125 1.9219t1.2656 0.625q0.76562 0 1.3125-0.64062 0.54688-0.65625 0.54688-2 0-1.2969-0.53125-1.9375-0.53125-0.64062-1.2656-0.64062-0.73438 0-1.2969 0.6875-0.5625 0.67188-0.5625 1.9844zm6.3812 5.9062v-9.3125h1.0312v0.875q0.375-0.51562 0.82812-0.76562 0.46875-0.26562 1.1406-0.26562 0.85938 0 1.5156 0.45312 0.65625 0.4375 0.98438 1.25 0.34375 0.79688 0.34375 1.7656 0 1.0312-0.375 1.8594-0.35938 0.82812-1.0781 1.2812-0.70312 0.4375-1.4844 0.4375-0.5625 0-1.0156-0.23438-0.45312-0.25-0.75-0.625v3.2812h-1.1406zm1.0312-5.9062q0 1.2969 0.53125 1.9219t1.2656 0.625q0.76562 0 1.3125-0.64062 0.54688-0.65625 0.54688-2 0-1.2969-0.53125-1.9375-0.53125-0.64062-1.2656-0.64062-0.73438 0-1.2969 0.6875-0.5625 0.67188-0.5625 1.9844zm6.35 3.3281v-9.3125h1.1406v9.3125h-1.1406zm2.9923-7.9844v-1.3281h1.1406v1.3281h-1.1406zm0 7.9844v-6.7344h1.1406v6.7344h-1.1406zm7.3517-2.4688l1.125 0.14062q-0.17188 1.1719-0.9375 1.8281-0.76562 0.65625-1.8594 0.65625-1.3906 0-2.2344-0.90625-0.82812-0.90625-0.82812-2.5938 0-1.0938 0.35938-1.9062 0.35938-0.82812 1.0938-1.2344 0.73438-0.40625 1.6094-0.40625 1.0938 0 1.7969 0.5625 0.70312 0.54688 0.89062 1.5625l-1.1094 0.17188q-0.15625-0.67188-0.5625-1.0156-0.39062-0.34375-0.96875-0.34375-0.85938 0-1.4062 0.625-0.53125 0.60938-0.53125 1.9531 0 1.3594 0.51562 1.9844 0.51562 0.60938 1.3594 0.60938 0.67188 0 1.125-0.40625 0.45312-0.42188 0.5625-1.2812zm6.6641 1.6406q-0.625 0.53125-1.2188 0.76562-0.57812 0.21875-1.25 0.21875-1.125 0-1.7188-0.54688-0.59375-0.54688-0.59375-1.3906 0-0.48438 0.21875-0.89062 0.23438-0.42188 0.59375-0.67188 0.375-0.25 0.82812-0.375 0.32812-0.078125 1.0156-0.17188 1.375-0.15625 2.0312-0.39062 0.015625-0.23438 0.015625-0.29688 0-0.70312-0.32812-0.98438-0.4375-0.39062-1.2969-0.39062-0.8125 0-1.2031 0.28125-0.375 0.28125-0.5625 1l-1.1094-0.14062q0.14062-0.71875 0.48438-1.1562 0.35938-0.45312 1.0156-0.6875 0.67188-0.23438 1.5312-0.23438 0.875 0 1.4062 0.20312 0.54688 0.20312 0.79688 0.51562 0.25 0.29688 0.35938 0.76562 0.046875 0.29688 0.046875 1.0625v1.5156q0 1.5938 0.078125 2.0156 0.078125 0.42188 0.28125 0.8125h-1.1875q-0.17188-0.35938-0.23438-0.82812zm-0.09375-2.5625q-0.625 0.26562-1.8594 0.4375-0.70312 0.10938-1 0.23438t-0.45312 0.375q-0.15625 0.23438-0.15625 0.53125 0 0.45312 0.34375 0.76562 0.34375 0.29688 1.0156 0.29688 0.65625 0 1.1719-0.28125 0.51562-0.29688 0.76562-0.79688 0.17188-0.375 0.17188-1.1406v-0.42188zm5.6156 2.375l0.15625 1q-0.48438 0.10938-0.85938 0.10938-0.625 0-0.96875-0.20312t-0.48438-0.51562q-0.14062-0.32812-0.14062-1.3438v-3.8906h-0.82812v-0.875h0.82812v-1.6719l1.1406-0.6875v2.3594h1.1562v0.875h-1.1562v3.9531q0 0.48438 0.0625 0.625t0.1875 0.21875q0.14062 0.078125 0.39062 0.078125 0.20312 0 0.51562-0.03125zm1.203-6.9688v-1.3281h1.1406v1.3281h-1.1406zm0 7.9844v-6.7344h1.1406v6.7344h-1.1406zm2.5392-3.375q0-1.875 1.0312-2.7656 0.875-0.75 2.125-0.75 1.3906 0 2.2656 0.90625 0.89062 0.90625 0.89062 2.5156 0 1.2969-0.39062 2.0469t-1.1406 1.1719q-0.75 0.40625-1.625 0.40625-1.4219 0-2.2969-0.90625-0.85938-0.90625-0.85938-2.625zm1.1719 0q0 1.2969 0.5625 1.9531 0.5625 0.64062 1.4219 0.64062 0.84375 0 1.4062-0.64062 0.57812-0.65625 0.57812-1.9844 0-1.25-0.57812-1.8906-0.5625-0.65625-1.4062-0.65625-0.85938 0-1.4219 0.64062-0.5625 0.64062-0.5625 1.9375zm6.6625 3.375v-6.7344h1.0312v0.95312q0.73438-1.1094 2.1406-1.1094 0.60938 0 1.1094 0.21875 0.51562 0.21875 0.76562 0.57812 0.26562 0.34375 0.35938 0.84375 0.0625 0.3125 0.0625 1.1094v4.1406h-1.1406v-4.0938q0-0.70312-0.14062-1.0469-0.125-0.34375-0.46875-0.54688-0.32812-0.21875-0.78125-0.21875-0.73438 0-1.2656 0.46875-0.53125 0.45312-0.53125 1.75v3.6875h-1.1406z" fill="#000"/>
  <path d="m496.15 256.81l1.1719-0.10938q0.078125 0.70312 0.375 1.1562 0.3125 0.4375 0.9375 0.71875 0.64062 0.26562 1.4375 0.26562 0.70312 0 1.2344-0.20312 0.54688-0.20312 0.8125-0.5625 0.26562-0.375 0.26562-0.8125t-0.26562-0.76562q-0.25-0.32812-0.82812-0.54686-0.375-0.14062-1.6562-0.45312t-1.7969-0.57812q-0.67188-0.34375-1-0.85938-0.32812-0.53125-0.32812-1.1719 0-0.70312 0.39062-1.3125 0.40625-0.60938 1.1719-0.92188 0.78125-0.32812 1.7188-0.32812 1.0312 0 1.8125 0.34375 0.79688 0.32812 1.2188 0.98438 0.4375 0.64062 0.46875 1.4531l-1.1875 0.09375q-0.09375-0.89062-0.64062-1.3281-0.54688-0.45312-1.625-0.45312-1.1094 0-1.625 0.40625-0.51562 0.40625-0.51562 0.98438 0 0.5 0.35938 0.82812t1.8594 0.67188q1.5 0.32812 2.0625 0.57812 0.8125 0.375 1.1875 0.95312 0.39062 0.57811 0.39062 1.3281 0 0.73438-0.42188 1.3906-0.42188 0.65625-1.2188 1.0312-0.79688 0.35938-1.7969 0.35938-1.2656 0-2.125-0.35938-0.84375-0.375-1.3281-1.1094-0.48438-0.75-0.51562-1.6719zm13.78 0.8125l1.1875 0.14062q-0.28125 1.0469-1.0469 1.625-0.75 0.5625-1.9219 0.5625-1.4844 0-2.3594-0.90625-0.85938-0.92188-0.85938-2.5625 0-1.7031 0.875-2.6406 0.89062-0.9375 2.2812-0.9375 1.3594 0 2.2031 0.92188 0.85938 0.92188 0.85938 2.5781 0 0.10938 0 0.3125h-5.0312q0.0625 1.1094 0.625 1.7031 0.5625 0.59375 1.4062 0.59375 0.64062 0 1.0781-0.32812 0.45312-0.34375 0.70312-1.0625zm-3.75-1.8437h3.7656q-0.078125-0.85938-0.4375-1.2812-0.54688-0.65625-1.4062-0.65625-0.79688 0-1.3281 0.53125-0.53125 0.51562-0.59375 1.4062zm6.5375 4.0156v-6.7344h1.0312v1.0156q0.39062-0.71875 0.71875-0.9375 0.34375-0.23438 0.73438-0.23438 0.57812 0 1.1719 0.35938l-0.39062 1.0625q-0.42188-0.25-0.82812-0.25-0.375 0-0.6875 0.23438-0.29688 0.21875-0.42188 0.625-0.1875 0.60938-0.1875 1.3281v3.5312h-1.1406zm6.329 0l-2.5625-6.7344h1.2031l1.4375 4.0312q0.23438 0.65625 0.4375 1.3594 0.15625-0.53125 0.42188-1.2812l1.5-4.1094h1.1719l-2.5469 6.7344h-1.0625zm9.3984-2.1719l1.1875 0.14062q-0.28125 1.0469-1.0469 1.625-0.75 0.5625-1.9219 0.5625-1.4844 0-2.3594-0.90625-0.85938-0.92188-0.85938-2.5625 0-1.7031 0.875-2.6406 0.89062-0.9375 2.2812-0.9375 1.3594 0 2.2031 0.92188 0.85938 0.92188 0.85938 2.5781 0 0.10938 0 0.3125h-5.0312q0.0625 1.1094 0.625 1.7031 0.5625 0.59375 1.4062 0.59375 0.64062 0 1.0781-0.32812 0.45312-0.34375 0.70312-1.0625zm-3.75-1.8437h3.7656q-0.078125-0.85938-0.4375-1.2812-0.54688-0.65625-1.4062-0.65625-0.79688 0-1.3281 0.53125-0.53125 0.51562-0.59375 1.4062zm6.5375 4.0156v-6.7344h1.0312v1.0156q0.39062-0.71875 0.71875-0.9375 0.34375-0.23438 0.73438-0.23438 0.57812 0 1.1719 0.35938l-0.39062 1.0625q-0.42188-0.25-0.82812-0.25-0.375 0-0.6875 0.23438-0.29688 0.21875-0.42188 0.625-0.1875 0.60938-0.1875 1.3281v3.5312h-1.1406z" fill="#000"/>
  <path d="m486.77 278.53q-0.95312-1.1875-1.6094-2.7812-0.65625-1.6094-0.65625-3.3281 0-1.5 0.5-2.8906 0.5625-1.6094 1.7656-3.2031h0.8125q-0.76562 1.3281-1.0156 1.8906-0.39062 0.875-0.60938 1.8281-0.26562 1.1875-0.26562 2.3906 0 3.0469 1.8906 6.0938h-0.8125zm6.6415-3.5625q-0.625 0.53125-1.2188 0.76562-0.57812 0.21875-1.25 0.21875-1.125 0-1.7188-0.54688-0.59375-0.54688-0.59375-1.3906 0-0.48438 0.21875-0.89062 0.23438-0.42188 0.59375-0.67188 0.375-0.25 0.82812-0.375 0.32812-0.078125 1.0156-0.17188 1.375-0.15625 2.0312-0.39062 0.015625-0.23438 0.015625-0.29688 0-0.70312-0.32812-0.98438-0.4375-0.39062-1.2969-0.39062-0.8125 0-1.2031 0.28125-0.375 0.28125-0.5625 1l-1.1094-0.14062q0.14062-0.71875 0.48438-1.1562 0.35938-0.45312 1.0156-0.6875 0.67188-0.23438 1.5312-0.23438 0.875 0 1.4062 0.20312 0.54688 0.20312 0.79688 0.51562 0.25 0.29688 0.35938 0.76562 0.046875 0.29688 0.046875 1.0625v1.5156q0 1.5938 0.078125 2.0156 0.078125 0.42188 0.28125 0.8125h-1.1875q-0.17188-0.35938-0.23438-0.82812zm-0.09375-2.5625q-0.625 0.26562-1.8594 0.4375-0.70312 0.10938-1 0.23438t-0.45312 0.375q-0.15625 0.23438-0.15625 0.53125 0 0.45312 0.34375 0.76562 0.34375 0.29688 1.0156 0.29688 0.65625 0 1.1719-0.28125 0.51562-0.29688 0.76562-0.79688 0.17188-0.375 0.17188-1.1406v-0.42188zm3.4437 3.3906v-1.2969h1.2969v1.2969h-1.2969zm3.3748 0v-9.3125h1.1406v5.3125l2.7031-2.7344h1.4844l-2.5781 2.5 2.8438 4.2344h-1.4062l-2.2344-3.4531-0.8125 0.78125v2.6719h-1.1406zm6.9922 0v-1.2969h1.2969v1.2969h-1.2969zm7.7655-0.82812q-0.625 0.53125-1.2188 0.76562-0.57812 0.21875-1.25 0.21875-1.125 0-1.7187-0.54688-0.59375-0.54688-0.59375-1.3906 0-0.48438 0.21875-0.89062 0.23438-0.42188 0.59375-0.67188 0.375-0.25 0.82812-0.375 0.32809-0.078125 1.0156-0.17188 1.375-0.15625 2.0312-0.39062 0.015625-0.23438 0.015625-0.29688 0-0.70312-0.32812-0.98438-0.4375-0.39062-1.2969-0.39062-0.8125 0-1.2031 0.28125-0.375 0.28125-0.5625 1l-1.1094-0.14062q0.14062-0.71875 0.48438-1.1562 0.35938-0.45312 1.0156-0.6875 0.67184-0.23438 1.5312-0.23438 0.875 0 1.4062 0.20312 0.54688 0.20312 0.79688 0.51562 0.25 0.29688 0.35938 0.76562 0.046875 0.29688 0.046875 1.0625v1.5156q0 1.5938 0.078125 2.0156 0.078125 0.42188 0.28125 0.8125h-1.1875q-0.17188-0.35938-0.23438-0.82812zm-0.09375-2.5625q-0.625 0.26562-1.8594 0.4375-0.70312 0.10938-0.99997 0.23438-0.29688 0.125-0.45312 0.375-0.15625 0.23438-0.15625 0.53125 0 0.45312 0.34375 0.76562 0.34372 0.29688 1.0156 0.29688 0.65625 0 1.1719-0.28125 0.51562-0.29688 0.76562-0.79688 0.17188-0.375 0.17188-1.1406v-0.42188zm5.9436 3.3906l3.5781-9.3125h1.3125l3.8125 9.3125h-1.4062l-1.0781-2.8125h-3.8906l-1.0312 2.8125h-1.2969zm2.6875-3.8281h3.1562l-0.98438-2.5781q-0.4375-1.1719-0.65625-1.9219-0.17188 0.89062-0.5 1.7812l-1.0156 2.7188zm7.2179 3.8281v-9.3125h3.5156q0.92188 0 1.4062 0.09375 0.6875 0.10938 1.1562 0.4375 0.46875 0.3125 0.75 0.89062t0.28125 1.2812q0 1.1875-0.76562 2.0156-0.75 0.8125-2.7188 0.8125h-2.3906v3.7812h-1.2344zm1.2344-4.875h2.4062q1.1875 0 1.6875-0.4375 0.51562-0.45312 0.51562-1.2656 0-0.57812-0.29688-0.98438-0.29688-0.42188-0.78125-0.5625-0.3125-0.078125-1.1562-0.078125h-2.375v3.3281zm7.8741 4.875v-9.3125h1.2188v9.3125h-1.2188zm4.0936 2.7344h-0.82812q1.9062-3.0469 1.9062-6.0938 0-1.2031-0.28125-2.375-0.20312-0.95312-0.59375-1.8281-0.25-0.5625-1.0312-1.9062h0.82812q1.1875 1.5938 1.7656 3.2031 0.48438 1.3906 0.48438 2.8906 0 1.7188-0.65625 3.3281-0.65625 1.5938-1.5938 2.7812z" fill="#000"/>
  <path fill-opacity="0" d="m489.32 149.17h51.748v48h-51.748z" fill="#000"/>
  <path d="m501.23 188.89v-3.2031h3.2031v3.2031h-3.2031zm8.8906 0v-3.2031h3.2031v3.2031h-3.2031zm8.8906 0v-3.2031h3.2031v3.2031h-3.2031z" fill="#000"/>
  <path fill-opacity="0" d="m101.51 89.919l57.732 38.205" fill="#000"/>
  <path stroke-linejoin="round" d="m101.51 89.919l52.729 34.894" fill-rule="evenodd" stroke="#000" stroke-linecap="butt"/>
  <path d="m153.33 126.19l4.696 1.127-2.873-3.8818z" fill-rule="evenodd" stroke="#000" stroke-linecap="butt" fill="#000"/>
  <path fill-opacity="0" d="m101.51 160.12l57.732-32" fill="#000"/>
  <path stroke-linejoin="round" d="m101.51 160.12l52.485-29.091" fill-rule="evenodd" stroke="#000" stroke-linecap="butt"/>
  <path d="m154.79 132.48l3.1684-3.6447-4.7699 0.75539z" fill-rule="evenodd" stroke="#000" stroke-linecap="butt" fill="#000"/>
  <path fill-opacity="0" d="m109.92 307.34h49.323" fill="#000"/>
  <path stroke-linejoin="round" d="m109.92 307.34h43.323" fill-rule="evenodd" stroke="#000" stroke-linecap="butt"/>
  <path d="m153.24 309l4.5381-1.6517-4.5381-1.6517z" fill-rule="evenodd" stroke="#000" stroke-linecap="butt" fill="#000"/>
  <path fill-opacity="0" d="m187.56 128.12l41.134-56.441" fill="#000"/>
  <path stroke-linejoin="round" d="m187.56 128.12l37.6-51.592" fill-rule="evenodd" stroke="#000" stroke-linecap="butt"/>
  <path d="m226.49 77.504l1.338-4.6403-4.0077 2.6946z" fill-rule="evenodd" stroke="#000" stroke-linecap="butt" fill="#000"/>
  <path fill-opacity="0" d="m187.56 128.12l41.134 46.992" fill="#000"/>
  <path stroke-linejoin="round" d="m187.56 128.12l37.182 42.477" fill-rule="evenodd" stroke="#000" stroke-linecap="butt"/>
  <path d="m223.5 171.69l4.2319 2.3268-1.7462-4.5026z" fill-rule="evenodd" stroke="#000" stroke-linecap="butt" fill="#000"/>
  <path fill-opacity="0" d="m187.56 307.34l41.133-0.38049" fill="#000"/>
  <path stroke-linejoin="round" d="m187.56 307.34l35.133-0.32501" fill-rule="evenodd" stroke="#000" stroke-linecap="butt"/>
  <path d="m222.7 308.67l4.5226-1.6936-4.5532-1.6097z" fill-rule="evenodd" stroke="#000" stroke-linecap="butt" fill="#000"/>
  <path fill-opacity="0" d="m342.7 306.96l51.581-129.24" fill="#000"/>
  <path stroke-linejoin="round" d="m342.7 306.96l49.357-123.67" fill-rule="evenodd" stroke="#000" stroke-linecap="butt"/>
  <path d="m393.6 183.9l0.14807-4.8271-3.2162 3.6026z" fill-rule="evenodd" stroke="#000" stroke-linecap="butt" fill="#000"/>
  <path fill-opacity="0" d="m347.67 71.704l46.614 106.02" fill="#000"/>
  <path stroke-linejoin="round" d="m347.67 71.704l44.199 100.52" fill-rule="evenodd" stroke="#000" stroke-linecap="butt"/>
  <path d="m390.36 172.89l3.3386 3.4894-0.31454-4.8191z" fill-rule="evenodd" stroke="#000" stroke-linecap="butt" fill="#000"/>
  <path fill-opacity="0" d="m347.67 175.14l46.614 2.5827" fill="#000"/>
  <path stroke-linejoin="round" d="m347.67 175.14l40.623 2.2508" fill-rule="evenodd" stroke="#000" stroke-linecap="butt"/>
  <path d="m388.2 179.04l4.6225-1.3982-4.4398-1.9003z" fill-rule="evenodd" stroke="#000" stroke-linecap="butt" fill="#000"/>
  <path fill-opacity="0" d="m422.6 177.72l46.362-86.394" fill="#000"/>
  <path stroke-linejoin="round" d="m422.6 177.72l43.525-81.107" fill-rule="evenodd" stroke="#000" stroke-linecap="butt"/>
  <path d="m467.58 97.394l0.69046-4.7797-3.6013 3.2177z" fill-rule="evenodd" stroke="#000" stroke-linecap="butt" fill="#000"/>
  <path fill-opacity="0" d="m422.6 177.72l46.362 77.291" fill="#000"/>
  <path stroke-linejoin="round" d="m422.6 177.72l43.276 72.146" fill-rule="evenodd" stroke="#000" stroke-linecap="butt"/>
  <path d="m464.46 250.72l3.7508 3.042-0.91794-4.7413z" fill-rule="evenodd" stroke="#000" stroke-linecap="butt" fill="#000"/>
  <path fill-opacity="0" d="m561.44 91.33l69.764 24.976" fill="#000"/>
  <path stroke-linejoin="round" d="m561.44 91.33l64.115 22.954" fill-rule="evenodd" stroke="#000" stroke-linecap="butt"/>
  <path d="m625 115.84l4.8292-0.025452-3.7158-3.0847z" fill-rule="evenodd" stroke="#000" stroke-linecap="butt" fill="#000"/>
  <path fill-opacity="0" d="m561.43 91.346l86.173 134.93" fill="#000"/>
  <path stroke-linejoin="round" d="m561.43 91.346l82.944 129.87" fill-rule="evenodd" stroke="#000" stroke-linecap="butt"/>
  <path d="m642.98 222.11l3.8347 2.9356-1.0506-4.7137z" fill-rule="evenodd" stroke="#000" stroke-linecap="butt" fill="#000"/>
  <path fill-opacity="0" d="m561.44 254.98l69.764-138.68" fill="#000"/>
  <path stroke-linejoin="round" d="m561.44 254.98l67.067-133.32" fill-rule="evenodd" stroke="#000" stroke-linecap="butt"/>
  <path d="m629.98 122.41l0.5639-4.7963-3.515 3.3117z" fill-rule="evenodd" stroke="#000" stroke-linecap="butt" fill="#000"/>
  <path fill-opacity="0" d="m561.43 255l86.173-28.724" fill="#000"/>
  <path stroke-linejoin="round" d="m561.43 255l80.481-26.827" fill-rule="evenodd" stroke="#000" stroke-linecap="butt"/>
  <path d="m642.43 229.74l3.7829-3.002-4.8276-0.1319z" fill-rule="evenodd" stroke="#000" stroke-linecap="butt" fill="#000"/>
 </g>
</svg>
