<?xml version="1.0" encoding="UTF-8" standalone="no"?>
<!DOCTYPE svg  PUBLIC '-//W3C//DTD SVG 1.1//EN'  'http://www.w3.org/Graphics/SVG/1.1/DTD/svg11.dtd'>
<svg xmlns="http://www.w3.org/2000/svg" xmlns:xl="http://www.w3.org/1999/xlink" height="356pt" width="677pt" version="1.1" viewBox="50 109 677 356" xmlns:dc="http://purl.org/dc/elements/1.1/">
 <metadata>Produced by OmniGraffle 6.0.5
  <dc:date>2014-08-07 19:35Z</dc:date>
 </metadata>
 <defs>
  <filter id="Shadow" filterUnits="userSpaceOnUse">
   <feGaussianBlur stdDeviation="1.308" result="blur" in="SourceAlpha"/>
   <feOffset dy="3" result="offset" dx="3" in="blur"/>
   <feFlood result="flood" flood-color="black" flood-opacity=".5"/>
   <feComposite operator="in" result="color" in2="offset" in="flood"/>
   <feMerge>
    <feMergeNode in="color"/>
    <feMergeNode in="SourceGraphic"/>
   </feMerge>
  </filter>
  <marker id="FilledArrow_Marker" markerUnits="strokeWidth" color="#8c644c" orient="auto" markerWidth="6" overflow="visible" viewBox="-1 -3 6 6" markerHeight="6">
   <path stroke="currentColor" d="m3.2 0l-3.2-1.2v2.4z" fill="currentColor"/>
  </marker>
  <marker id="FilledArrow_Marker_2" markerUnits="strokeWidth" color="#199e46" orient="auto" markerWidth="6" overflow="visible" viewBox="-1 -3 6 6" markerHeight="6">
   <path stroke="currentColor" d="m3.2 0l-3.2-1.2v2.4z" fill="currentColor"/>
  </marker>
  <marker id="FilledArrow_Marker_3" markerUnits="strokeWidth" color="#25b1c4" orient="auto" markerWidth="6" overflow="visible" viewBox="-1 -3 6 6" markerHeight="6">
   <path stroke="currentColor" d="m3.2 0l-3.2-1.2v2.4z" fill="currentColor"/>
  </marker>
 </defs>
 <g fill="none">
  <title>Canvas 1</title>
  <g>
   <title>Layer 1</title>
   <g filter="url(#Shadow)">
    <path fill-opacity=".73" d="m82.763 165.42c1.314-0.71 2.39-1.79 3.105-3.38 1.225-2.73 1.483-5.61 0.64-8.5-1.493-5.14-6.319-8.54-11.514-8.54-0.752 0-1.514 0.07-2.273 0.22-4.846 0.94-9.248 6.02-8.01 11.83 0.726 3.41 2.748 6.18 5.63 7.86-0.231 0.33-0.457 0.68-0.677 1.05-3.766 6.4-3.43 6.33-7.69 12.34-4.269 6.08-1.292 11.7 5.84 11.7h0.068 0.211c4.265 0 6.427-0.05 8.597-0.11 2.164-0.05 4.335-0.1 8.609-0.1h0.107c7.343-0.2 10.767-5.59 6.639-12.14-4.199-6.45-5.234-5.69-9.053-11.82-0.075-0.14-0.152-0.27-0.229-0.41z" fill="#805d4a"/>
   </g>
   <path stroke-linejoin="round" marker-end="url(#FilledArrow_Marker)" d="m118.57 170.32c20.59-5.14 34.83 0.3 43.55 14.94" stroke="#8c644c" stroke-linecap="round" stroke-width="4"/>
   <path stroke-linejoin="round" marker-end="url(#FilledArrow_Marker)" d="m158.72 220c-20.6 5.13-34.84-0.3-43.55-14.94" stroke="#8c644c" stroke-linecap="round" stroke-width="4"/>
   <g filter="url(#Shadow)">
    <path d="m256.01 210c-29.96 0-29.96 0.01-59.92 0.01-18.26 0-36.09 7.24-36.09 21.27 0 23.37 2.83 23.37 2.83 46.74 0 14.03 15 21.42 33.26 21.42 29.96 0 29.96 0.56 59.92 0.56 18.25 0 31.71-7.95 31.71-21.98 0-23.37 1.36-23.35 2.28-46.72 0-14.03-15.74-21.3-33.99-21.3z" fill="#25b1c4"/>
    <text transform="translate(165 244)" fill="white">
     <tspan font-size="16" font-weight="500" textLength="51.03125" y="17" x="34.484375" font-family="Open Sans" fill="white">Editing</tspan>
    </text>
   </g>
   <g filter="url(#Shadow)">
    <path fill-opacity=".73" d="m73.763 262.92c1.314-0.71 2.39-1.79 3.105-3.38 1.225-2.73 1.483-5.61 0.64-8.5-1.493-5.14-6.319-8.54-11.514-8.54-0.752 0-1.514 0.07-2.273 0.22-4.846 0.94-9.248 6.02-8.01 11.83 0.726 3.41 2.748 6.18 5.63 7.86-0.231 0.33-0.457 0.68-0.677 1.05-3.766 6.4-3.43 6.33-7.69 12.34-4.269 6.08-1.292 11.7 5.84 11.7h0.068 0.211c4.265 0 6.427-0.05 8.597-0.11 2.164-0.05 4.335-0.1 8.609-0.1h0.107c7.343-0.2 10.767-5.59 6.639-12.14-4.199-6.45-5.234-5.69-9.053-11.82-0.075-0.14-0.152-0.27-0.229-0.41z" fill="#805d4a"/>
   </g>
   <path stroke-linejoin="round" marker-end="url(#FilledArrow_Marker)" d="m90 255.5c15.01-15.01 30.02-17.68 45.02-9.63" stroke="#8c644c" stroke-linecap="round" stroke-width="4"/>
   <path stroke-linejoin="round" marker-end="url(#FilledArrow_Marker)" d="m150 277.41c-15.01 15.01-30.02 17.68-45.02 9.63" stroke="#8c644c" stroke-linecap="round" stroke-width="4"/>
   <g filter="url(#Shadow)">
    <path fill-opacity=".73" d="m118.94 360.42c1.32-0.71 2.39-1.79 3.11-3.38 1.22-2.73 1.48-5.61 0.64-8.5-1.49-5.14-6.32-8.54-11.52-8.54-0.75 0-1.51 0.07-2.27 0.22-4.84 0.94-9.246 6.02-8.01 11.83 0.73 3.41 2.75 6.18 5.63 7.86-0.23 0.33-0.46 0.68-0.68 1.05-3.76 6.4-3.43 6.33-7.686 12.34-4.269 6.08-1.292 11.7 5.836 11.7h0.07 0.21c4.27 0 6.43-0.05 8.6-0.11 2.16-0.05 4.34-0.1 8.61-0.1h0.11c7.34-0.2 10.76-5.59 6.64-12.14-4.2-6.45-5.24-5.69-9.06-11.82-0.07-0.14-0.15-0.27-0.23-0.41z" fill="#805d4a"/>
   </g>
   <path stroke-linejoin="round" marker-end="url(#FilledArrow_Marker)" d="m128.9 342.5c2.95-21.01 13.33-32.18 30.16-34.78" stroke="#8c644c" stroke-linecap="round" stroke-width="4"/>
   <path stroke-linejoin="round" marker-end="url(#FilledArrow_Marker)" d="m190 323.89c-2.95 21.02-13.33 32.18-30.16 34.79" stroke="#8c644c" stroke-linecap="round" stroke-width="4"/>
   <g filter="url(#Shadow)">
    <path d="m498.22 213c-30.65 0-30.65 0.01-61.29 0.01-18.68 0-36.93 7-36.93 20.56 0 22.59 2.9 22.59 2.9 45.19 0 13.55 15.35 20.7 34.03 20.7 30.64 0 30.64 0.54 61.29 0.54 18.68 0 32.45-7.69 32.45-21.24 0-22.6 1.39-22.58 2.33-45.17 0-13.57-16.1-20.59-34.78-20.59z" fill="#78ab6c"/>
    <text transform="translate(405 245.5)" fill="white">
     <tspan font-size="16" font-weight="500" textLength="77.4375" y="17" x="22.78125" font-family="Open Sans" fill="white">Publishing</tspan>
    </text>
   </g>
   <g filter="url(#Shadow)">
    <path fill-opacity=".75" d="m652.54 130.12c-0.2 0.72-0.39 1.44-0.6 2.15-0.49 1.62-0.99 2.39-1.73 2.39-0.55 0-1.23-0.43-2.13-1.24-1.31-1.17-2.66-2.43-4.19-3.14-0.48-0.22-0.94-0.32-1.37-0.32-1.76 0-2.96 1.72-2.37 3.96 0.49 1.85 1.44 3.6 2.4 5.24 1.08 1.85 2.38 3.54 3.61 5.28 1.33 1.88 1.43 3.76 0.18 5.76-0.47 0.74-0.95 1.56-1.12 2.42-0.21 1.12-0.38 2.38-0.12 3.45 0.62 2.64 2.5 4.14 4.59 4.14 1.21 0 2.49-0.5 3.64-1.58 1.58-1.47 2.76-3.44 4.13-5.18 0.54-0.68 1.03-1.02 1.47-1.02 0.51 0 0.96 0.48 1.34 1.45 0.61 1.58 1.21 3.16 1.75 4.77 0.78 2.29 2.25 3.35 4.03 3.35h0.22 0.01c2.61 0 4.16-1.01 4.64-3.12 0.3-1.31 0.37-2.76 0.24-4.12-0.19-1.9-0.69-3.77-1.01-5.67-0.33-1.89 0.32-3.37 1.75-4.42 1.42-1.04 2.94-1.93 4.3-3.06 1.19-0.99 2.36-2.1 3.27-3.38 0.8-1.12 0.63-2.58-0.1-3.78-0.52-0.85-1.25-1.19-2.05-1.19-0.31 0-0.64 0.06-0.97 0.15-1.45 0.44-2.86 1.05-4.3 1.56-1.85 0.66-3.69 1.41-5.58 1.91-0.6 0.15-1.11 0.24-1.54 0.24-1.27 0-1.96-0.71-2.64-2.5-0.47-1.24-0.81-2.53-1.15-3.83 3.21-0.46 5.9-1.64 7.33-4.3 1.43-2.63 1.73-5.42 0.75-8.22-1.74-4.98-7.36-8.27-13.42-8.27-0.87 0-1.76 0.07-2.65 0.21-5.64 0.92-10.77 5.83-9.33 11.46 1.02 3.97 4.22 7.04 8.72 8.45z" fill="#8c644c"/>
   </g>
   <g filter="url(#Shadow)">
    <path fill-opacity=".75" d="m632.54 170.12c-0.2 0.72-0.39 1.44-0.6 2.15-0.49 1.62-0.99 2.39-1.73 2.39-0.55 0-1.23-0.43-2.13-1.24-1.31-1.17-2.66-2.43-4.19-3.14-0.48-0.22-0.94-0.32-1.37-0.32-1.76 0-2.96 1.72-2.37 3.96 0.49 1.85 1.44 3.6 2.4 5.24 1.08 1.85 2.38 3.54 3.61 5.28 1.33 1.88 1.43 3.76 0.18 5.76-0.47 0.74-0.95 1.56-1.12 2.42-0.21 1.12-0.38 2.38-0.12 3.45 0.62 2.64 2.5 4.14 4.59 4.14 1.21 0 2.49-0.5 3.64-1.58 1.58-1.47 2.76-3.44 4.13-5.18 0.54-0.68 1.03-1.02 1.47-1.02 0.51 0 0.96 0.48 1.34 1.45 0.61 1.58 1.21 3.16 1.75 4.77 0.78 2.29 2.25 3.35 4.03 3.35h0.22 0.01c2.61 0 4.16-1.01 4.64-3.12 0.3-1.31 0.37-2.76 0.24-4.12-0.19-1.9-0.69-3.77-1.01-5.67-0.33-1.89 0.32-3.37 1.75-4.42 1.42-1.04 2.94-1.93 4.3-3.06 1.19-0.99 2.36-2.1 3.27-3.38 0.8-1.12 0.63-2.58-0.1-3.78-0.52-0.85-1.25-1.19-2.05-1.19-0.31 0-0.64 0.06-0.97 0.15-1.45 0.44-2.86 1.05-4.3 1.56-1.85 0.66-3.69 1.41-5.58 1.91-0.6 0.15-1.11 0.24-1.54 0.24-1.27 0-1.96-0.71-2.64-2.5-0.47-1.24-0.81-2.53-1.15-3.83 3.21-0.46 5.9-1.64 7.33-4.3 1.43-2.63 1.73-5.42 0.75-8.22-1.74-4.98-7.36-8.27-13.42-8.27-0.87 0-1.76 0.07-2.65 0.21-5.64 0.92-10.77 5.83-9.33 11.46 1.02 3.97 4.22 7.04 8.72 8.45z" fill="#8c644c"/>
   </g>
   <g filter="url(#Shadow)">
    <path fill-opacity=".7" d="m692.76 150.42c1.32-0.71 2.39-1.79 3.11-3.38 1.22-2.73 1.48-5.61 0.64-8.5-1.49-5.14-6.32-8.54-11.52-8.54-0.75 0-1.51 0.07-2.27 0.22-4.85 0.94-9.25 6.02-8.01 11.83 0.73 3.41 2.75 6.18 5.63 7.86-0.23 0.33-0.46 0.68-0.68 1.05-3.76 6.4-3.43 6.33-7.69 12.34-4.27 6.08-1.29 11.7 5.84 11.7h0.07 0.21c4.27 0 6.43-0.05 8.6-0.11 2.16-0.05 4.34-0.1 8.61-0.1h0.11c7.34-0.2 10.76-5.59 6.63-12.14-4.19-6.45-5.23-5.69-9.05-11.82-0.07-0.14-0.15-0.27-0.23-0.41z" fill="#fdd9be"/>
   </g>
   <g filter="url(#Shadow)">
    <path fill-opacity=".75" d="m662.54 248.12c-0.2 0.72-0.39 1.44-0.6 2.15-0.49 1.62-0.99 2.39-1.73 2.39-0.55 0-1.23-0.43-2.13-1.24-1.31-1.17-2.66-2.43-4.19-3.14-0.48-0.22-0.94-0.32-1.37-0.32-1.76 0-2.96 1.72-2.37 3.96 0.49 1.85 1.44 3.6 2.4 5.24 1.08 1.85 2.38 3.54 3.61 5.28 1.33 1.88 1.43 3.76 0.18 5.76-0.47 0.74-0.95 1.56-1.12 2.42-0.21 1.12-0.38 2.38-0.12 3.45 0.62 2.64 2.5 4.14 4.59 4.14 1.21 0 2.49-0.5 3.64-1.58 1.58-1.47 2.76-3.44 4.13-5.18 0.54-0.68 1.03-1.02 1.47-1.02 0.51 0 0.96 0.48 1.34 1.45 0.61 1.58 1.21 3.16 1.75 4.77 0.78 2.29 2.25 3.35 4.03 3.35h0.22 0.01c2.61 0 4.16-1.01 4.64-3.12 0.3-1.31 0.37-2.76 0.24-4.12-0.19-1.9-0.69-3.77-1.01-5.67-0.33-1.89 0.32-3.37 1.75-4.42 1.42-1.04 2.94-1.93 4.3-3.06 1.19-0.99 2.36-2.1 3.27-3.38 0.8-1.12 0.63-2.58-0.1-3.78-0.52-0.85-1.25-1.19-2.05-1.19-0.31 0-0.64 0.06-0.97 0.15-1.45 0.44-2.86 1.05-4.3 1.56-1.85 0.66-3.69 1.41-5.58 1.91-0.6 0.15-1.11 0.24-1.54 0.24-1.27 0-1.96-0.71-2.64-2.5-0.47-1.24-0.81-2.53-1.15-3.83 3.21-0.46 5.9-1.64 7.33-4.3 1.43-2.63 1.73-5.42 0.75-8.22-1.74-4.98-7.36-8.27-13.42-8.27-0.87 0-1.76 0.07-2.65 0.21-5.64 0.92-10.77 5.83-9.33 11.46 1.02 3.97 4.22 7.04 8.72 8.45z" fill="#8c644c"/>
   </g>
   <g filter="url(#Shadow)">
    <path fill-opacity=".7" d="m622.54 210.12c-0.2 0.72-0.39 1.44-0.6 2.15-0.49 1.62-0.99 2.39-1.73 2.39-0.55 0-1.23-0.43-2.13-1.24-1.31-1.17-2.66-2.43-4.19-3.14-0.48-0.22-0.94-0.32-1.37-0.32-1.76 0-2.96 1.72-2.37 3.96 0.49 1.85 1.44 3.6 2.4 5.24 1.08 1.85 2.38 3.54 3.61 5.28 1.33 1.88 1.43 3.76 0.18 5.76-0.47 0.74-0.95 1.56-1.12 2.42-0.21 1.12-0.38 2.38-0.12 3.45 0.62 2.64 2.5 4.14 4.59 4.14 1.21 0 2.49-0.5 3.64-1.58 1.58-1.47 2.76-3.44 4.13-5.18 0.54-0.68 1.03-1.02 1.47-1.02 0.51 0 0.96 0.48 1.34 1.45 0.61 1.58 1.21 3.16 1.75 4.77 0.78 2.29 2.25 3.35 4.03 3.35h0.22 0.01c2.61 0 4.16-1.01 4.64-3.12 0.3-1.31 0.37-2.76 0.24-4.12-0.19-1.9-0.69-3.77-1.01-5.67-0.33-1.89 0.32-3.37 1.75-4.42 1.42-1.04 2.94-1.93 4.3-3.06 1.19-0.99 2.36-2.1 3.27-3.38 0.8-1.12 0.63-2.58-0.1-3.78-0.52-0.85-1.25-1.19-2.05-1.19-0.31 0-0.64 0.06-0.97 0.15-1.45 0.44-2.86 1.05-4.3 1.56-1.85 0.66-3.69 1.41-5.58 1.91-0.6 0.15-1.11 0.24-1.54 0.24-1.27 0-1.96-0.71-2.64-2.5-0.47-1.24-0.81-2.53-1.15-3.83 3.21-0.46 5.9-1.64 7.33-4.3 1.43-2.63 1.73-5.42 0.75-8.22-1.74-4.98-7.36-8.27-13.42-8.27-0.87 0-1.76 0.07-2.65 0.21-5.64 0.92-10.77 5.83-9.33 11.46 1.02 3.97 4.22 7.04 8.72 8.45z" fill="#fdd9be"/>
   </g>
   <g filter="url(#Shadow)">
    <path fill-opacity=".75" d="m692.76 210.42c1.32-0.71 2.39-1.79 3.11-3.38 1.22-2.73 1.48-5.61 0.64-8.5-1.49-5.14-6.32-8.54-11.52-8.54-0.75 0-1.51 0.07-2.27 0.22-4.85 0.94-9.25 6.02-8.01 11.83 0.73 3.41 2.75 6.18 5.63 7.86-0.23 0.33-0.46 0.68-0.68 1.05-3.76 6.4-3.43 6.33-7.69 12.34-4.27 6.08-1.29 11.7 5.84 11.7h0.07 0.21c4.27 0 6.43-0.05 8.6-0.11 2.16-0.05 4.34-0.1 8.61-0.1h0.11c7.34-0.2 10.76-5.59 6.63-12.14-4.19-6.45-5.23-5.69-9.05-11.82-0.07-0.14-0.15-0.27-0.23-0.41z" fill="#8c644c"/>
   </g>
   <g filter="url(#Shadow)">
    <path fill-opacity=".75" d="m632.76 260.42c1.32-0.71 2.39-1.79 3.11-3.38 1.22-2.73 1.48-5.61 0.64-8.5-1.49-5.14-6.32-8.54-11.52-8.54-0.75 0-1.51 0.07-2.27 0.22-4.85 0.94-9.25 6.02-8.01 11.83 0.73 3.41 2.75 6.18 5.63 7.86-0.23 0.33-0.46 0.68-0.68 1.05-3.76 6.4-3.43 6.33-7.69 12.34-4.27 6.08-1.29 11.7 5.84 11.7h0.07 0.21c4.27 0 6.43-0.05 8.6-0.11 2.16-0.05 4.34-0.1 8.61-0.1h0.11c7.34-0.2 10.76-5.59 6.63-12.14-4.19-6.45-5.23-5.69-9.05-11.82-0.07-0.14-0.15-0.27-0.23-0.41z" fill="#8c644c"/>
   </g>
   <g filter="url(#Shadow)">
    <path fill-opacity=".75" d="m618.72 320.12c-0.2 0.72-0.39 1.44-0.6 2.15-0.49 1.62-0.99 2.39-1.73 2.39-0.55 0-1.23-0.43-2.13-1.24-1.31-1.17-2.66-2.43-4.19-3.14-0.48-0.22-0.94-0.32-1.37-0.32-1.76 0-2.96 1.72-2.37 3.96 0.49 1.85 1.44 3.6 2.4 5.24 1.08 1.85 2.38 3.54 3.61 5.28 1.34 1.88 1.43 3.76 0.18 5.76-0.47 0.74-0.95 1.56-1.12 2.42-0.21 1.12-0.38 2.38-0.12 3.45 0.62 2.64 2.5 4.14 4.59 4.14 1.21 0 2.49-0.5 3.64-1.58 1.58-1.47 2.76-3.44 4.13-5.18 0.54-0.68 1.03-1.02 1.47-1.02 0.51 0 0.96 0.48 1.34 1.45 0.61 1.58 1.21 3.16 1.75 4.77 0.78 2.29 2.25 3.35 4.03 3.35h0.22 0.01c2.61 0 4.16-1.01 4.64-3.12 0.3-1.31 0.37-2.76 0.24-4.12-0.19-1.9-0.69-3.77-1.01-5.67-0.33-1.89 0.32-3.37 1.75-4.42 1.42-1.04 2.94-1.93 4.3-3.06 1.19-0.99 2.36-2.1 3.27-3.38 0.8-1.12 0.63-2.58-0.1-3.78-0.52-0.85-1.25-1.19-2.05-1.19-0.31 0-0.64 0.06-0.97 0.15-1.45 0.44-2.86 1.05-4.3 1.56-1.85 0.66-3.69 1.41-5.58 1.91-0.6 0.15-1.11 0.24-1.54 0.24-1.27 0-1.96-0.71-2.64-2.5-0.47-1.24-0.81-2.53-1.15-3.83 3.21-0.46 5.9-1.64 7.33-4.3 1.43-2.63 1.73-5.42 0.75-8.22-1.74-4.98-7.36-8.27-13.42-8.27-0.87 0-1.76 0.07-2.65 0.21-5.64 0.92-10.77 5.83-9.33 11.46 1.02 3.97 4.22 7.04 8.72 8.45z" fill="#8c644c"/>
   </g>
   <g filter="url(#Shadow)">
    <path fill-opacity=".75" d="m648.72 420.12c-0.2 0.72-0.39 1.44-0.6 2.15-0.49 1.62-0.99 2.39-1.73 2.39-0.55 0-1.23-0.43-2.13-1.24-1.31-1.17-2.66-2.43-4.19-3.14-0.48-0.22-0.94-0.32-1.37-0.32-1.76 0-2.96 1.72-2.37 3.96 0.49 1.85 1.44 3.6 2.4 5.24 1.08 1.85 2.38 3.54 3.61 5.28 1.34 1.88 1.43 3.76 0.18 5.76-0.47 0.74-0.95 1.56-1.12 2.42-0.21 1.12-0.38 2.38-0.12 3.45 0.62 2.64 2.5 4.14 4.59 4.14 1.21 0 2.49-0.5 3.64-1.58 1.58-1.47 2.76-3.44 4.13-5.18 0.54-0.68 1.03-1.02 1.47-1.02 0.51 0 0.96 0.48 1.34 1.45 0.61 1.58 1.21 3.16 1.75 4.77 0.78 2.29 2.25 3.35 4.03 3.35h0.22 0.01c2.61 0 4.16-1.01 4.64-3.12 0.3-1.31 0.37-2.76 0.24-4.12-0.19-1.9-0.69-3.77-1.01-5.67-0.33-1.89 0.32-3.37 1.75-4.42 1.42-1.04 2.94-1.93 4.3-3.06 1.19-0.99 2.36-2.1 3.27-3.38 0.8-1.12 0.63-2.58-0.1-3.78-0.52-0.85-1.25-1.19-2.05-1.19-0.31 0-0.64 0.06-0.97 0.15-1.45 0.44-2.86 1.05-4.3 1.56-1.85 0.66-3.69 1.41-5.58 1.91-0.6 0.15-1.11 0.24-1.54 0.24-1.27 0-1.96-0.71-2.64-2.5-0.47-1.24-0.81-2.53-1.15-3.83 3.21-0.46 5.9-1.64 7.33-4.3 1.43-2.63 1.73-5.42 0.75-8.22-1.74-4.98-7.36-8.27-13.42-8.27-0.87 0-1.76 0.07-2.65 0.21-5.64 0.92-10.77 5.83-9.33 11.46 1.02 3.97 4.22 7.04 8.72 8.45z" fill="#8c644c"/>
   </g>
   <g filter="url(#Shadow)">
    <path fill-opacity=".75" d="m692.54 420.12c-0.2 0.72-0.39 1.44-0.6 2.15-0.49 1.62-0.99 2.39-1.73 2.39-0.55 0-1.23-0.43-2.13-1.24-1.31-1.17-2.66-2.43-4.19-3.14-0.48-0.22-0.94-0.32-1.37-0.32-1.76 0-2.96 1.72-2.37 3.96 0.49 1.85 1.44 3.6 2.4 5.24 1.08 1.85 2.38 3.54 3.61 5.28 1.33 1.88 1.43 3.76 0.18 5.76-0.47 0.74-0.95 1.56-1.12 2.42-0.21 1.12-0.38 2.38-0.12 3.45 0.62 2.64 2.5 4.14 4.59 4.14 1.21 0 2.49-0.5 3.64-1.58 1.58-1.47 2.76-3.44 4.13-5.18 0.54-0.68 1.03-1.02 1.47-1.02 0.51 0 0.96 0.48 1.34 1.45 0.61 1.58 1.21 3.16 1.75 4.77 0.78 2.29 2.25 3.35 4.03 3.35h0.22 0.01c2.61 0 4.16-1.01 4.64-3.12 0.3-1.31 0.37-2.76 0.24-4.12-0.19-1.9-0.69-3.77-1.01-5.67-0.33-1.89 0.32-3.37 1.75-4.42 1.42-1.04 2.94-1.93 4.3-3.06 1.19-0.99 2.36-2.1 3.27-3.38 0.8-1.12 0.63-2.58-0.1-3.78-0.52-0.85-1.25-1.19-2.05-1.19-0.31 0-0.64 0.06-0.97 0.15-1.45 0.44-2.86 1.05-4.3 1.56-1.85 0.66-3.69 1.41-5.58 1.91-0.6 0.15-1.11 0.24-1.54 0.24-1.27 0-1.96-0.71-2.64-2.5-0.47-1.24-0.81-2.53-1.15-3.83 3.21-0.46 5.9-1.64 7.33-4.3 1.43-2.63 1.73-5.42 0.75-8.22-1.74-4.98-7.36-8.27-13.42-8.27-0.87 0-1.76 0.07-2.65 0.21-5.64 0.92-10.77 5.83-9.33 11.46 1.02 3.97 4.22 7.04 8.72 8.45z" fill="#8c644c"/>
   </g>
   <g filter="url(#Shadow)">
    <path fill-opacity=".75" d="m678.94 382.42c1.32-0.71 2.39-1.79 3.11-3.38 1.22-2.73 1.48-5.61 0.64-8.5-1.49-5.14-6.32-8.54-11.52-8.54-0.75 0-1.51 0.07-2.27 0.22-4.84 0.94-9.25 6.02-8.01 11.83 0.73 3.41 2.75 6.18 5.63 7.86-0.23 0.33-0.46 0.68-0.68 1.05-3.76 6.4-3.43 6.33-7.69 12.34-4.26 6.08-1.29 11.7 5.84 11.7h0.07 0.21c4.27 0 6.43-0.05 8.6-0.11 2.16-0.05 4.34-0.1 8.61-0.1h0.11c7.34-0.2 10.76-5.59 6.64-12.14-4.2-6.45-5.24-5.69-9.06-11.82-0.07-0.14-0.15-0.27-0.23-0.41z" fill="#8c644c"/>
   </g>
   <g filter="url(#Shadow)">
    <path fill-opacity=".7" d="m618.94 432.42c1.32-0.71 2.39-1.79 3.11-3.38 1.22-2.73 1.48-5.61 0.64-8.5-1.49-5.14-6.32-8.54-11.52-8.54-0.75 0-1.51 0.07-2.27 0.22-4.84 0.94-9.25 6.02-8.01 11.83 0.73 3.41 2.75 6.18 5.63 7.86-0.23 0.33-0.46 0.68-0.68 1.05-3.76 6.4-3.43 6.33-7.69 12.34-4.26 6.08-1.29 11.7 5.84 11.7h0.07 0.21c4.27 0 6.43-0.05 8.6-0.11 2.16-0.05 4.34-0.1 8.61-0.1h0.11c7.34-0.2 10.76-5.59 6.64-12.14-4.2-6.45-5.24-5.69-9.06-11.82-0.07-0.14-0.15-0.27-0.23-0.41z" fill="#fdd9be"/>
   </g>
   <g filter="url(#Shadow)">
    <path fill-opacity=".75" d="m692.54 338.12c-0.2 0.72-0.39 1.44-0.6 2.15-0.49 1.62-0.99 2.39-1.73 2.39-0.55 0-1.23-0.43-2.13-1.24-1.31-1.17-2.66-2.43-4.19-3.14-0.48-0.22-0.94-0.32-1.37-0.32-1.76 0-2.96 1.72-2.37 3.96 0.49 1.85 1.44 3.6 2.4 5.24 1.08 1.85 2.38 3.54 3.61 5.28 1.33 1.88 1.43 3.76 0.18 5.76-0.47 0.74-0.95 1.56-1.12 2.42-0.21 1.12-0.38 2.38-0.12 3.45 0.62 2.64 2.5 4.14 4.59 4.14 1.21 0 2.49-0.5 3.64-1.58 1.58-1.47 2.76-3.44 4.13-5.18 0.54-0.68 1.03-1.02 1.47-1.02 0.51 0 0.96 0.48 1.34 1.45 0.61 1.58 1.21 3.16 1.75 4.77 0.78 2.29 2.25 3.35 4.03 3.35h0.22 0.01c2.61 0 4.16-1.01 4.64-3.12 0.3-1.31 0.37-2.76 0.24-4.12-0.19-1.9-0.69-3.77-1.01-5.67-0.33-1.89 0.32-3.37 1.75-4.42 1.42-1.04 2.94-1.93 4.3-3.06 1.19-0.99 2.36-2.1 3.27-3.38 0.8-1.12 0.63-2.58-0.1-3.78-0.52-0.85-1.25-1.19-2.05-1.19-0.31 0-0.64 0.06-0.97 0.15-1.45 0.44-2.86 1.05-4.3 1.56-1.85 0.66-3.69 1.41-5.58 1.91-0.6 0.15-1.11 0.24-1.54 0.24-1.27 0-1.96-0.71-2.64-2.5-0.47-1.24-0.81-2.53-1.15-3.83 3.21-0.46 5.9-1.64 7.33-4.3 1.43-2.63 1.73-5.42 0.75-8.22-1.74-4.98-7.36-8.27-13.42-8.27-0.87 0-1.76 0.07-2.65 0.21-5.64 0.92-10.77 5.83-9.33 11.46 1.02 3.97 4.22 7.04 8.72 8.45z" fill="#8c644c"/>
   </g>
   <g filter="url(#Shadow)">
    <path fill-opacity=".7" d="m662.54 290.12c-0.2 0.72-0.39 1.44-0.6 2.15-0.49 1.62-0.99 2.39-1.73 2.39-0.55 0-1.23-0.43-2.13-1.24-1.31-1.17-2.66-2.43-4.19-3.14-0.48-0.22-0.94-0.32-1.37-0.32-1.76 0-2.96 1.72-2.37 3.96 0.49 1.85 1.44 3.6 2.4 5.24 1.08 1.85 2.38 3.54 3.61 5.28 1.33 1.88 1.43 3.76 0.18 5.76-0.47 0.74-0.95 1.56-1.12 2.42-0.21 1.12-0.38 2.38-0.12 3.45 0.62 2.64 2.5 4.14 4.59 4.14 1.21 0 2.49-0.5 3.64-1.58 1.58-1.47 2.76-3.44 4.13-5.18 0.54-0.68 1.03-1.02 1.47-1.02 0.51 0 0.96 0.48 1.34 1.45 0.61 1.58 1.21 3.16 1.75 4.77 0.78 2.29 2.25 3.35 4.03 3.35h0.22 0.01c2.61 0 4.16-1.01 4.64-3.12 0.3-1.31 0.37-2.76 0.24-4.12-0.19-1.9-0.69-3.77-1.01-5.67-0.33-1.89 0.32-3.37 1.75-4.42 1.42-1.04 2.94-1.93 4.3-3.06 1.19-0.99 2.36-2.1 3.27-3.38 0.8-1.12 0.63-2.58-0.1-3.78-0.52-0.85-1.25-1.19-2.05-1.19-0.31 0-0.64 0.06-0.97 0.15-1.45 0.44-2.86 1.05-4.3 1.56-1.85 0.66-3.69 1.41-5.58 1.91-0.6 0.15-1.11 0.24-1.54 0.24-1.27 0-1.96-0.71-2.64-2.5-0.47-1.24-0.81-2.53-1.15-3.83 3.21-0.46 5.9-1.64 7.33-4.3 1.43-2.63 1.73-5.42 0.75-8.22-1.74-4.98-7.36-8.27-13.42-8.27-0.87 0-1.76 0.07-2.65 0.21-5.64 0.92-10.77 5.83-9.33 11.46 1.02 3.97 4.22 7.04 8.72 8.45z" fill="#fdd9be"/>
   </g>
   <g filter="url(#Shadow)">
    <path fill-opacity=".7" d="m642.76 355.42c1.32-0.71 2.39-1.79 3.11-3.38 1.22-2.73 1.48-5.61 0.64-8.5-1.49-5.14-6.32-8.54-11.52-8.54-0.75 0-1.51 0.07-2.27 0.22-4.85 0.94-9.25 6.02-8.01 11.83 0.73 3.41 2.75 6.18 5.63 7.86-0.23 0.33-0.46 0.68-0.68 1.05-3.76 6.4-3.43 6.33-7.69 12.34-4.27 6.08-1.29 11.7 5.84 11.7h0.07 0.21c4.27 0 6.43-0.05 8.6-0.11 2.16-0.05 4.34-0.1 8.61-0.1h0.11c7.34-0.2 10.76-5.59 6.63-12.14-4.19-6.45-5.23-5.69-9.05-11.82-0.07-0.14-0.15-0.27-0.23-0.41z" fill="#fdd9be"/>
   </g>
   <path stroke-linejoin="round" marker-end="url(#FilledArrow_Marker_2)" d="m540 210c21.93-19.19 43.85-38.37 65.78-57.56" stroke="#199e46" stroke-linecap="round" stroke-width="4"/>
   <path stroke-linejoin="round" marker-end="url(#FilledArrow_Marker_2)" d="m550 240c9.61-4.16 19.23-8.33 28.84-12.49" stroke="#199e46" stroke-linecap="round" stroke-width="4"/>
   <path stroke-linejoin="round" marker-end="url(#FilledArrow_Marker_2)" d="m550 270h41.11" stroke="#199e46" stroke-linecap="round" stroke-width="4"/>
   <path stroke-linejoin="round" marker-end="url(#FilledArrow_Marker_2)" d="m540 300c13.73 1.46 27.47 2.93 41.2 4.39" stroke="#199e46" stroke-linecap="round" stroke-width="4"/>
   <path stroke-linejoin="round" marker-end="url(#FilledArrow_Marker_2)" d="m520 306.39c19.56 26.16 39.12 52.32 58.68 78.47" stroke="#199e46" stroke-linecap="round" stroke-width="4"/>
   <path stroke-linejoin="round" marker-end="url(#FilledArrow_Marker_3)" d="m300 260h71.1" stroke="#25b1c4" stroke-linecap="round" stroke-width="4"/>
  </g>
 </g>
</svg>
